Merritest-Heavy.ufo
<glyph name="numbersign" format="1">
  <advance width="1489"/>
  <unicode hex="0023"/>
  <outline>
    <contour>
      <point x="300" y="0" type="line"/>
      <point x="330" y="345" type="line"/>
      <point x="113" y="345" type="line"/>
      <point x="113" y="564" type="line"/>
      <point x="349" y="564" type="line"/>
      <point x="374" y="829" type="line"/>
      <point x="139" y="829" type="line"/>
      <point x="139" y="1045" type="line"/>
      <point x="388" y="1045" type="line"/>
      <point x="426" y="1355" type="line"/>
      <point x="672" y="1355" type="line"/>
      <point x="645" y="1045" type="line"/>
      <point x="888" y="1045" type="line"/>
      <point x="916" y="1355" type="line"/>
      <point x="1177" y="1355" type="line"/>
      <point x="1151" y="1045" type="line"/>
      <point x="1376" y="1045" type="line"/>
      <point x="1376" y="829" type="line"/>
      <point x="1127" y="829" type="line"/>
      <point x="1103" y="564" type="line"/>
      <point x="1338" y="564" type="line"/>
      <point x="1338" y="491"/>
      <point x="1339" y="418"/>
      <point x="1339" y="345" type="curve"/>
      <point x="1083" y="345" type="line"/>
      <point x="1052" y="0" type="line"/>
      <point x="797" y="0" type="line"/>
      <point x="824" y="345" type="line"/>
      <point x="590" y="345" type="line"/>
      <point x="556" y="0" type="line"/>
    </contour>
    <contour>
      <point x="609" y="564" type="line"/>
      <point x="843" y="564" type="line"/>
      <point x="866" y="829" type="line"/>
      <point x="633" y="829" type="line"/>
    </contour>
  </outline>
</glyph>
<glyph name="dollar" format="1">
  <advance width="1366"/>
  <unicode hex="0024"/>
  <outline>
    <contour>
      <point x="127" y="64" type="curve"/>
      <point x="127" y="469" type="line"/>
      <point x="277" y="469" type="line"/>
      <point x="370" y="228" type="line"/>
      <point x="441" y="134"/>
      <point x="548" y="126"/>
      <point x="652" y="126" type="curve" smooth="yes"/>
      <point x="756" y="126"/>
      <point x="889" y="175"/>
      <point x="889" y="348" type="curve" smooth="yes"/>
      <point x="889" y="484"/>
      <point x="710" y="567"/>
      <point x="525" y="667" type="curve" smooth="yes"/>
      <point x="326" y="775"/>
      <point x="120" y="903"/>
      <point x="121" y="1141" type="curve" smooth="yes"/>
      <point x="122" y="1394"/>
      <point x="346" y="1543"/>
      <point x="595" y="1564" type="curve"/>
      <point x="600" y="1771" type="line"/>
      <point x="814" y="1771" type="line"/>
      <point x="809" y="1560" type="line"/>
      <point x="971" y="1547"/>
      <point x="1110" y="1515"/>
      <point x="1142" y="1495" type="curve"/>
      <point x="1142" y="1164" type="line"/>
      <point x="978" y="1164" type="line"/>
      <point x="884" y="1374" type="line"/>
      <point x="872" y="1389"/>
      <point x="776" y="1421"/>
      <point x="693" y="1421" type="curve" smooth="yes"/>
      <point x="586" y="1421"/>
      <point x="461" y="1384"/>
      <point x="459" y="1257" type="curve"/>
      <point x="459" y="1108"/>
      <point x="593" y="1017"/>
      <point x="751" y="930" type="curve" smooth="yes"/>
      <point x="975" y="806"/>
      <point x="1246" y="689"/>
      <point x="1245" y="421" type="curve" smooth="yes"/>
      <point x="1244" y="182"/>
      <point x="1049" y="-3"/>
      <point x="718" y="-25" type="curve"/>
      <point x="709" y="-241" type="line"/>
      <point x="485" y="-241" type="line"/>
      <point x="494" y="-20" type="line"/>
      <point x="348" y="-7"/>
      <point x="202" y="24"/>
    </contour>
  </outline>
</glyph>
<glyph name="quotesingle" format="1">
  <advance width="713"/>
  <unicode hex="0027"/>
  <outline>
    <contour>
      <point x="259" y="956" type="line"/>
      <point x="174" y="1782" type="line"/>
      <point x="539" y="1782" type="line"/>
      <point x="454" y="956" type="line"/>
    </contour>
  </outline>
</glyph>
<glyph name="period" format="1">
  <advance width="803"/>
  <unicode hex="002E"/>
  <outline>
    <contour>
      <point x="179" y="157" type="curve" smooth="yes"/>
      <point x="179" y="286"/>
      <point x="308" y="384"/>
      <point x="417" y="384" type="curve" smooth="yes"/>
      <point x="558" y="384"/>
      <point x="624" y="297"/>
      <point x="624" y="190" type="curve" smooth="yes"/>
      <point x="624" y="54"/>
      <point x="500" y="-29"/>
      <point x="382" y="-29" type="curve" smooth="yes"/>
      <point x="281" y="-29"/>
      <point x="179" y="38"/>
    </contour>
  </outline>
</glyph>
<glyph name="slash" format="1">
  <advance width="827"/>
  <unicode hex="002F"/>
  <outline>
    <contour>
      <point x="30" y="-363" type="line"/>
      <point x="544" y="1599" type="line"/>
      <point x="797" y="1599" type="line"/>
      <point x="282" y="-363" type="line"/>
    </contour>
  </outline>
</glyph>
<glyph name="zero" format="1">
  <advance width="1404"/>
  <unicode hex="0030"/>
  <outline>
    <contour>
      <point x="104" y="632" type="curve"/>
      <point x="111" y="1020"/>
      <point x="416" y="1249"/>
      <point x="721" y="1252" type="curve" smooth="yes"/>
      <point x="1134" y="1256"/>
      <point x="1303" y="975"/>
      <point x="1300" y="623" type="curve" smooth="yes"/>
      <point x="1296" y="238"/>
      <point x="1013" y="-23"/>
      <point x="695" y="-24" type="curve" smooth="yes"/>
      <point x="289" y="-25"/>
      <point x="100" y="290"/>
    </contour>
    <contour>
      <point x="716" y="128" type="curve" smooth="yes"/>
      <point x="871" y="123"/>
      <point x="911" y="282"/>
      <point x="911" y="611" type="curve" smooth="yes"/>
      <point x="911" y="904"/>
      <point x="826" y="1096"/>
      <point x="684" y="1100" type="curve" smooth="yes"/>
      <point x="529" y="1104"/>
      <point x="492" y="933"/>
      <point x="492" y="651" type="curve" smooth="yes"/>
      <point x="492" y="415"/>
      <point x="574" y="133"/>
    </contour>
  </outline>
</glyph>
<glyph name="one" format="1">
  <advance width="995"/>
  <unicode hex="0031"/>
  <outline>
    <contour>
      <point x="113" y="0" type="line"/>
      <point x="113" y="146" type="line"/>
      <point x="374" y="187" type="line"/>
      <point x="374" y="912" type="line"/>
      <point x="97" y="880" type="line"/>
      <point x="61" y="1042" type="line"/>
      <point x="190" y="1077"/>
      <point x="526" y="1229"/>
      <point x="576" y="1268" type="curve"/>
      <point x="720" y="1249" type="line"/>
      <point x="715" y="186" type="line"/>
      <point x="952" y="146" type="line"/>
      <point x="952" y="0" type="line"/>
    </contour>
  </outline>
</glyph>
<glyph name="two" format="1">
  <advance width="1262"/>
  <unicode hex="0032"/>
  <outline>
    <contour>
      <point x="139" y="0" type="line"/>
      <point x="89" y="130" type="line"/>
      <point x="397" y="314"/>
      <point x="725" y="606"/>
      <point x="725" y="829" type="curve" smooth="yes"/>
      <point x="725" y="934"/>
      <point x="658" y="1049"/>
      <point x="511" y="1049" type="curve" smooth="yes"/>
      <point x="349" y="1049"/>
      <point x="242" y="966"/>
      <point x="165" y="905" type="curve"/>
      <point x="79" y="1034" type="line"/>
      <point x="126" y="1104"/>
      <point x="332" y="1263"/>
      <point x="622" y="1263" type="curve" smooth="yes"/>
      <point x="921" y="1263"/>
      <point x="1093" y="1092"/>
      <point x="1093" y="910" type="curve" smooth="yes"/>
      <point x="1093" y="634"/>
      <point x="879" y="468"/>
      <point x="443" y="180" type="curve"/>
      <point x="969" y="251" type="line"/>
      <point x="1061" y="369" type="line"/>
      <point x="1206" y="325" type="line"/>
      <point x="1137" y="0" type="line"/>
    </contour>
  </outline>
</glyph>
<glyph name="three" format="1">
  <advance width="1115"/>
  <unicode hex="0033"/>
  <outline>
    <contour>
      <point x="113" y="-134" type="curve"/>
      <point x="423" y="-210"/>
      <point x="693" y="-68"/>
      <point x="693" y="190" type="curve" smooth="yes"/>
      <point x="693" y="264"/>
      <point x="683" y="435"/>
      <point x="450" y="463" type="curve"/>
      <point x="235" y="418" type="line"/>
      <point x="235" y="602" type="line"/>
      <point x="344" y="612"/>
      <point x="604" y="696"/>
      <point x="604" y="915" type="curve" smooth="yes"/>
      <point x="604" y="1027"/>
      <point x="512" y="1071"/>
      <point x="438" y="1071" type="curve" smooth="yes"/>
      <point x="277" y="1071"/>
      <point x="192" y="1009"/>
      <point x="130" y="970" type="curve"/>
      <point x="44" y="1097" type="line"/>
      <point x="81" y="1136"/>
      <point x="254" y="1269"/>
      <point x="521" y="1269" type="curve" smooth="yes"/>
      <point x="720" y="1269"/>
      <point x="937" y="1178"/>
      <point x="937" y="932" type="curve" smooth="yes"/>
      <point x="937" y="778"/>
      <point x="785" y="611"/>
      <point x="630" y="563" type="curve"/>
      <point x="864" y="561"/>
      <point x="1037" y="416"/>
      <point x="1037" y="200" type="curve" smooth="yes"/>
      <point x="1037" y="-115"/>
      <point x="677" y="-417"/>
      <point x="114" y="-311" type="curve"/>
      <point x="114" y="-249"/>
      <point x="113" y="-196"/>
    </contour>
  </outline>
</glyph>
<glyph name="less" format="1">
  <advance width="1335"/>
  <unicode hex="003C"/>
  <outline>
    <contour>
      <point x="183" y="703" type="line"/>
      <point x="183" y="837" type="line"/>
      <point x="1152" y="1340" type="line"/>
      <point x="1152" y="1047" type="line"/>
      <point x="557" y="767" type="line"/>
      <point x="1152" y="521" type="line"/>
      <point x="1152" y="217" type="line"/>
    </contour>
  </outline>
</glyph>
<glyph name="question" format="1">
  <advance width="1063"/>
  <unicode hex="003F"/>
  <outline>
    <contour>
      <point x="363" y="543" type="line"/>
      <point x="244" y="657"/>
      <point x="196" y="779"/>
      <point x="196" y="853" type="curve" smooth="yes"/>
      <point x="196" y="1062"/>
      <point x="723" y="1083"/>
      <point x="751" y="1177" type="curve"/>
      <point x="736" y="1487"/>
      <point x="431" y="1566"/>
      <point x="311" y="1571" type="curve" smooth="yes"/>
      <point x="188" y="1576"/>
      <point x="118" y="1566"/>
      <point x="83" y="1538" type="curve"/>
      <point x="68" y="1810" type="line"/>
      <point x="86" y="1838"/>
      <point x="219" y="1865"/>
      <point x="318" y="1861" type="curve" smooth="yes"/>
      <point x="969" y="1833"/>
      <point x="1004" y="1273"/>
      <point x="918" y="1092" type="curve"/>
      <point x="883" y="1033"/>
      <point x="608" y="967"/>
      <point x="526" y="870" type="curve" smooth="yes"/>
      <point x="480" y="816"/>
      <point x="582" y="593"/>
      <point x="613" y="543" type="curve"/>
    </contour>
    <contour>
      <point x="335" y="154" type="curve" smooth="yes"/>
      <point x="335" y="283"/>
      <point x="464" y="381"/>
      <point x="573" y="381" type="curve" smooth="yes"/>
      <point x="714" y="381"/>
      <point x="780" y="294"/>
      <point x="780" y="187" type="curve" smooth="yes"/>
      <point x="780" y="51"/>
      <point x="656" y="-32"/>
      <point x="538" y="-32" type="curve" smooth="yes"/>
      <point x="437" y="-32"/>
      <point x="335" y="35"/>
    </contour>
  </outline>
</glyph>
<glyph name="at" format="1">
  <advance width="2282"/>
  <unicode hex="0040"/>
  <outline>
    <contour>
      <point x="140" y="381" type="curve" smooth="yes"/>
      <point x="140" y="1054"/>
      <point x="777" y="1462"/>
      <point x="1294" y="1462" type="curve" smooth="yes"/>
      <point x="1938" y="1462"/>
      <point x="2156" y="1129"/>
      <point x="2156" y="818" type="curve" smooth="yes"/>
      <point x="2156" y="374"/>
      <point x="1855" y="59"/>
      <point x="1528" y="37" type="curve"/>
      <point x="1378" y="28"/>
      <point x="1349" y="122"/>
      <point x="1349" y="246" type="curve" smooth="yes"/>
      <point x="1349" y="268"/>
      <point x="1355" y="332"/>
      <point x="1363" y="398" type="curve"/>
      <point x="1285" y="223"/>
      <point x="1146" y="33"/>
      <point x="976" y="25" type="curve" smooth="yes"/>
      <point x="820" y="17"/>
      <point x="637" y="164"/>
      <point x="637" y="385" type="curve" smooth="yes"/>
      <point x="637" y="783"/>
      <point x="902" y="1041"/>
      <point x="1119" y="1058" type="curve" smooth="yes"/>
      <point x="1242" y="1067"/>
      <point x="1308" y="1044"/>
      <point x="1396" y="1009" type="curve"/>
      <point x="1411" y="1044"/>
      <point x="1430" y="1069"/>
      <point x="1458" y="1062" type="curve" smooth="yes"/>
      <point x="1542" y="1041"/>
      <point x="1612" y="1012"/>
      <point x="1696" y="988" type="curve"/>
      <point x="1672" y="837"/>
      <point x="1637" y="683"/>
      <point x="1620" y="492" type="curve" smooth="yes"/>
      <point x="1602" y="284"/>
      <point x="1624" y="215"/>
      <point x="1637" y="215" type="curve" smooth="yes"/>
      <point x="1739" y="217"/>
      <point x="1898" y="494"/>
      <point x="1898" y="730" type="curve" smooth="yes"/>
      <point x="1898" y="1178"/>
      <point x="1572" y="1303"/>
      <point x="1203" y="1303" type="curve" smooth="yes"/>
      <point x="873" y="1303"/>
      <point x="434" y="987"/>
      <point x="434" y="491" type="curve" smooth="yes"/>
      <point x="434" y="-57"/>
      <point x="782" y="-215"/>
      <point x="1149" y="-215" type="curve" smooth="yes"/>
      <point x="1290" y="-215"/>
      <point x="1500" y="-168"/>
      <point x="1557" y="-134" type="curve"/>
      <point x="1622" y="-262" type="line"/>
      <point x="1524" y="-332"/>
      <point x="1342" y="-378"/>
      <point x="1111" y="-378" type="curve" smooth="yes"/>
      <point x="523" y="-378"/>
      <point x="140" y="-97"/>
    </contour>
    <contour>
      <point x="927" y="502" type="curve" smooth="yes"/>
      <point x="927" y="374"/>
      <point x="954" y="247"/>
      <point x="1025" y="247" type="curve" smooth="yes"/>
      <point x="1086" y="247"/>
      <point x="1288" y="551"/>
      <point x="1329" y="823" type="curve"/>
      <point x="1300" y="842"/>
      <point x="1202" y="862"/>
      <point x="1162" y="862" type="curve" smooth="yes"/>
      <point x="1040" y="862"/>
      <point x="927" y="758"/>
    </contour>
  </outline>
</glyph>
<glyph name="B" format="1">
  <advance width="1457"/>
  <unicode hex="0042"/>
  <outline>
    <contour>
      <point x="80" y="0" type="line"/>
      <point x="80" y="140" type="line"/>
      <point x="235" y="183" type="line"/>
      <point x="235" y="1367" type="line"/>
      <point x="84" y="1389" type="line"/>
      <point x="84" y="1553" type="line"/>
      <point x="396" y="1553" type="line"/>
      <point x="389" y="1559"/>
      <point x="574" y="1561"/>
      <point x="745" y="1567" type="curve" smooth="yes"/>
      <point x="1114" y="1579"/>
      <point x="1305" y="1429"/>
      <point x="1305" y="1197" type="curve" smooth="yes"/>
      <point x="1305" y="1034"/>
      <point x="1221" y="886"/>
      <point x="1043" y="838" type="curve"/>
      <point x="1240" y="838"/>
      <point x="1411" y="669"/>
      <point x="1411" y="464" type="curve" smooth="yes"/>
      <point x="1411" y="156"/>
      <point x="1223" y="-11"/>
      <point x="701" y="-11" type="curve" smooth="yes"/>
      <point x="580" y="-11"/>
      <point x="488" y="0"/>
      <point x="306" y="0" type="curve" smooth="yes"/>
    </contour>
    <contour>
      <point x="589" y="882" type="line"/>
      <point x="610" y="875"/>
      <point x="647" y="874"/>
      <point x="719" y="874" type="curve" smooth="yes"/>
      <point x="962" y="874"/>
      <point x="964" y="1064"/>
      <point x="964" y="1172" type="curve" smooth="yes"/>
      <point x="964" y="1301"/>
      <point x="911" y="1414"/>
      <point x="697" y="1414" type="curve" smooth="yes"/>
      <point x="667" y="1414"/>
      <point x="613" y="1410"/>
      <point x="591" y="1399" type="curve"/>
    </contour>
    <contour>
      <point x="587" y="164" type="line"/>
      <point x="620" y="147"/>
      <point x="701" y="137"/>
      <point x="792" y="137" type="curve" smooth="yes"/>
      <point x="990" y="137"/>
      <point x="1038" y="320"/>
      <point x="1038" y="448" type="curve" smooth="yes"/>
      <point x="1038" y="587"/>
      <point x="985" y="724"/>
      <point x="778" y="724" type="curve" smooth="yes"/>
      <point x="718" y="724"/>
      <point x="652" y="725"/>
      <point x="587" y="712" type="curve"/>
    </contour>
  </outline>
</glyph>
<glyph name="C" format="1">
  <advance width="1475"/>
  <unicode hex="0043"/>
  <outline>
    <contour>
      <point x="68" y="724" type="curve" smooth="yes"/>
      <point x="69" y="1242"/>
      <point x="495" y="1567"/>
      <point x="948" y="1567" type="curve" smooth="yes"/>
      <point x="1152" y="1567"/>
      <point x="1280" y="1522"/>
      <point x="1372" y="1503" type="curve"/>
      <point x="1352" y="1114" type="line"/>
      <point x="1142" y="1114" type="line"/>
      <point x="1069" y="1319" type="line"/>
      <point x="1043" y="1358"/>
      <point x="999" y="1382"/>
      <point x="853" y="1382" type="curve" smooth="yes"/>
      <point x="632" y="1382"/>
      <point x="463" y="1180"/>
      <point x="463" y="816" type="curve" smooth="yes"/>
      <point x="463" y="471"/>
      <point x="607" y="143"/>
      <point x="876" y="143" type="curve" smooth="yes"/>
      <point x="1043" y="143"/>
      <point x="1099" y="181"/>
      <point x="1117" y="223" type="curve" smooth="yes"/>
      <point x="1199" y="424" type="line"/>
      <point x="1373" y="424" type="line"/>
      <point x="1373" y="67" type="line"/>
      <point x="1273" y="63"/>
      <point x="1156" y="-28"/>
      <point x="851" y="-28" type="curve" smooth="yes"/>
      <point x="339" y="-28"/>
      <point x="68" y="305"/>
    </contour>
  </outline>
</glyph>
<glyph name="E" format="1">
  <advance width="1426"/>
  <unicode hex="0045"/>
  <outline>
    <contour>
      <point x="101" y="0" type="line"/>
      <point x="101" y="140" type="line"/>
      <point x="248" y="179" type="line"/>
      <point x="248" y="1367" type="line"/>
      <point x="106" y="1389" type="line"/>
      <point x="106" y="1553" type="line"/>
      <point x="1241" y="1553" type="line"/>
      <point x="1272" y="1211" type="line"/>
      <point x="1067" y="1211" type="line"/>
      <point x="973" y="1371" type="line"/>
      <point x="603" y="1392" type="line"/>
      <point x="603" y="873" type="line"/>
      <point x="859" y="883" type="line"/>
      <point x="913" y="1032" type="line"/>
      <point x="1094" y="1032" type="line"/>
      <point x="1094" y="544" type="line"/>
      <point x="913" y="544" type="line"/>
      <point x="859" y="703" type="line"/>
      <point x="603" y="709" type="line"/>
      <point x="603" y="160" type="line"/>
      <point x="1042" y="188" type="line"/>
      <point x="1169" y="386" type="line"/>
      <point x="1377" y="349" type="line"/>
      <point x="1323" y="0" type="line"/>
    </contour>
  </outline>
</glyph>
<glyph name="F" format="1">
  <advance width="1323"/>
  <unicode hex="0046"/>
  <outline>
    <contour>
      <point x="85" y="0" type="line"/>
      <point x="85" y="140" type="line"/>
      <point x="235" y="173" type="line"/>
      <point x="235" y="1369" type="line"/>
      <point x="80" y="1389" type="line"/>
      <point x="80" y="1553" type="line"/>
      <point x="1226" y="1553" type="line"/>
      <point x="1258" y="1205" type="line"/>
      <point x="1081" y="1203" type="line"/>
      <point x="1010" y="1356" type="line"/>
      <point x="590" y="1379" type="line"/>
      <point x="590" y="855" type="line"/>
      <point x="879" y="867" type="line"/>
      <point x="944" y="1020" type="line"/>
      <point x="1094" y="1020" type="line"/>
      <point x="1094" y="509" type="line"/>
      <point x="928" y="509" type="line"/>
      <point x="883" y="673" type="line"/>
      <point x="591" y="678" type="line"/>
      <point x="591" y="187" type="line"/>
      <point x="912" y="159" type="line"/>
      <point x="912" y="0" type="line"/>
    </contour>
  </outline>
</glyph>
<glyph name="G" format="1">
  <advance width="1585"/>
  <unicode hex="0047"/>
  <outline>
    <contour>
      <point x="65" y="748" type="curve" smooth="yes"/>
      <point x="65" y="1264"/>
      <point x="414" y="1567"/>
      <point x="893" y="1567" type="curve" smooth="yes"/>
      <point x="1159" y="1567"/>
      <point x="1357" y="1528"/>
      <point x="1402" y="1511" type="curve"/>
      <point x="1380" y="1170" type="line"/>
      <point x="1200" y="1170" type="line"/>
      <point x="1108" y="1349" type="line"/>
      <point x="1098" y="1365"/>
      <point x="1015" y="1410"/>
      <point x="872" y="1410" type="curve" smooth="yes"/>
      <point x="604" y="1410"/>
      <point x="451" y="1157"/>
      <point x="451" y="828" type="curve" smooth="yes"/>
      <point x="451" y="466"/>
      <point x="552" y="131"/>
      <point x="844" y="131" type="curve" smooth="yes"/>
      <point x="971" y="131"/>
      <point x="1094" y="195"/>
      <point x="1102" y="258" type="curve"/>
      <point x="1102" y="515" type="line"/>
      <point x="891" y="542" type="line"/>
      <point x="891" y="708" type="line"/>
      <point x="1509" y="708" type="line"/>
      <point x="1509" y="542" type="line"/>
      <point x="1415" y="519" type="line"/>
      <point x="1415" y="54" type="line"/>
      <point x="1243" y="75"/>
      <point x="1018" y="-28"/>
      <point x="780" y="-28" type="curve" smooth="yes"/>
      <point x="341" y="-28"/>
      <point x="65" y="314"/>
    </contour>
  </outline>
</glyph>
<glyph name="N" format="1">
  <advance width="1706"/>
  <unicode hex="004E"/>
  <outline>
    <contour>
      <point x="78" y="0" type="line"/>
      <point x="78" y="140" type="line"/>
      <point x="235" y="185" type="line"/>
      <point x="235" y="1346" type="line"/>
      <point x="85" y="1368" type="line"/>
      <point x="85" y="1553" type="line"/>
      <point x="594" y="1553" type="line"/>
      <point x="1196" y="505" type="line"/>
      <point x="1284" y="269" type="line"/>
      <point x="1284" y="1342" type="line"/>
      <point x="1104" y="1370" type="line"/>
      <point x="1104" y="1553" type="line"/>
      <point x="1648" y="1553" type="line"/>
      <point x="1648" y="1370" type="line"/>
      <point x="1511" y="1348" type="line"/>
      <point x="1511" y="0" type="line"/>
      <point x="1119" y="0" type="line"/>
      <point x="574" y="917" type="line"/>
      <point x="465" y="1187" type="line"/>
      <point x="465" y="855"/>
      <point x="466" y="517"/>
      <point x="466" y="189" type="curve"/>
      <point x="669" y="140" type="line"/>
      <point x="669" y="0" type="line"/>
    </contour>
  </outline>
</glyph>
<glyph name="Q" format="1">
  <advance width="1600"/>
  <unicode hex="0051"/>
  <outline>
    <contour>
      <point x="66" y="754" type="curve"/>
      <point x="78" y="1258"/>
      <point x="437" y="1567"/>
      <point x="818" y="1567" type="curve" smooth="yes"/>
      <point x="1254" y="1567"/>
      <point x="1543" y="1237"/>
      <point x="1534" y="790" type="curve"/>
      <point x="1524" y="366"/>
      <point x="1302" y="77"/>
      <point x="985" y="-4" type="curve"/>
      <point x="1060" y="-175"/>
      <point x="1278" y="-127"/>
      <point x="1328" y="-122" type="curve"/>
      <point x="1400" y="-112"/>
      <point x="1461" y="-89"/>
      <point x="1484" y="-82" type="curve"/>
      <point x="1484" y="-302" type="line"/>
      <point x="1437" y="-347"/>
      <point x="1343" y="-391"/>
      <point x="1188" y="-391" type="curve" smooth="yes"/>
      <point x="1046" y="-391"/>
      <point x="875" y="-326"/>
      <point x="817" y="-27" type="curve"/>
      <point x="810" y="-27"/>
      <point x="803" y="-28"/>
      <point x="797" y="-28" type="curve" smooth="yes"/>
      <point x="343" y="-28"/>
      <point x="57" y="313"/>
    </contour>
    <contour>
      <point x="810" y="132" type="curve" smooth="yes"/>
      <point x="1070" y="132"/>
      <point x="1142" y="350"/>
      <point x="1142" y="789" type="curve" smooth="yes"/>
      <point x="1142" y="1050"/>
      <point x="1052" y="1402"/>
      <point x="809" y="1402" type="curve" smooth="yes"/>
      <point x="544" y="1402"/>
      <point x="459" y="1173"/>
      <point x="459" y="755" type="curve" smooth="yes"/>
      <point x="459" y="520"/>
      <point x="553" y="132"/>
    </contour>
  </outline>
</glyph>
<glyph name="backslash" format="1">
  <advance width="827"/>
  <unicode hex="005C"/>
  <outline>
    <contour>
      <point x="545" y="-363" type="line"/>
      <point x="30" y="1599" type="line"/>
      <point x="283" y="1599" type="line"/>
      <point x="797" y="-363" type="line"/>
    </contour>
  </outline>
</glyph>
<glyph name="bracketright" format="1">
  <advance width="1118"/>
  <unicode hex="005D"/>
  <outline>
    <contour>
      <point x="231" y="-33" type="line"/>
      <point x="539" y="-29" type="line"/>
      <point x="539" y="1603" type="line"/>
      <point x="231" y="1603" type="line"/>
      <point x="231" y="1644"/>
      <point x="230" y="1686"/>
      <point x="230" y="1727" type="curve"/>
      <point x="325" y="1763"/>
      <point x="447" y="1804"/>
      <point x="540" y="1804" type="curve" smooth="yes"/>
      <point x="743" y="1804"/>
      <point x="853" y="1750"/>
      <point x="853" y="1512" type="curve" smooth="yes"/>
      <point x="853" y="111" type="line" smooth="yes"/>
      <point x="853" y="-187"/>
      <point x="744" y="-230"/>
      <point x="539" y="-230" type="curve" smooth="yes"/>
      <point x="447" y="-230"/>
      <point x="293" y="-195"/>
      <point x="227" y="-158" type="curve"/>
    </contour>
  </outline>
</glyph>
<glyph name="asciicircum" format="1">
  <advance width="1501"/>
  <unicode hex="005E"/>
  <outline>
    <contour>
      <point x="183" y="564" type="curve"/>
      <point x="585" y="1531" type="line"/>
      <point x="926" y="1531" type="line"/>
      <point x="1318" y="564" type="line"/>
      <point x="1212" y="564"/>
      <point x="1105" y="563"/>
      <point x="999" y="563" type="curve"/>
      <point x="735" y="1220" type="line"/>
      <point x="459" y="563" type="line"/>
      <point x="367" y="563"/>
      <point x="275" y="564"/>
    </contour>
  </outline>
</glyph>
<glyph name="b" format="1">
  <advance width="1327"/>
  <unicode hex="0062"/>
  <outline>
    <contour>
      <point x="149" y="56" type="curve"/>
      <point x="149" y="1384" type="line"/>
      <point x="24" y="1441" type="line"/>
      <point x="24" y="1581" type="line"/>
      <point x="446" y="1629" type="line"/>
      <point x="503" y="1612" type="line"/>
      <point x="503" y="1088" type="line"/>
      <point x="568" y="1124"/>
      <point x="657" y="1151"/>
      <point x="766" y="1151" type="curve" smooth="yes"/>
      <point x="1013" y="1151"/>
      <point x="1254" y="1004"/>
      <point x="1254" y="605" type="curve" smooth="yes"/>
      <point x="1254" y="279"/>
      <point x="1006" y="-28"/>
      <point x="623" y="-28" type="curve" smooth="yes"/>
      <point x="412" y="-28"/>
      <point x="178" y="27"/>
    </contour>
    <contour>
      <point x="503" y="201" type="line"/>
      <point x="521" y="167"/>
      <point x="564" y="117"/>
      <point x="659" y="117" type="curve" smooth="yes"/>
      <point x="772" y="117"/>
      <point x="886" y="206"/>
      <point x="897" y="567" type="curve" smooth="yes"/>
      <point x="906" y="852"/>
      <point x="755" y="976"/>
      <point x="629" y="976" type="curve" smooth="yes"/>
      <point x="575" y="976"/>
      <point x="533" y="967"/>
      <point x="503" y="957" type="curve"/>
    </contour>
  </outline>
</glyph>
<glyph name="d" format="1">
  <advance width="1383"/>
  <unicode hex="0064"/>
  <outline>
    <contour>
      <point x="73" y="541" type="curve" smooth="yes"/>
      <point x="73" y="898"/>
      <point x="366" y="1151"/>
      <point x="724" y="1151" type="curve" smooth="yes"/>
      <point x="754" y="1151"/>
      <point x="794" y="1151"/>
      <point x="844" y="1143" type="curve"/>
      <point x="844" y="1384" type="line"/>
      <point x="623" y="1441" type="line"/>
      <point x="623" y="1581" type="line"/>
      <point x="1133" y="1630" type="line"/>
      <point x="1198" y="1603" type="line"/>
      <point x="1198" y="136" type="line"/>
      <point x="1340" y="136" type="line"/>
      <point x="1340" y="29" type="line"/>
      <point x="1295" y="4"/>
      <point x="1195" y="-28"/>
      <point x="1036" y="-28" type="curve" smooth="yes"/>
      <point x="950" y="-28"/>
      <point x="896" y="-3"/>
      <point x="870" y="44" type="curve"/>
      <point x="817" y="7"/>
      <point x="721" y="-28"/>
      <point x="549" y="-28" type="curve" smooth="yes"/>
      <point x="340" y="-28"/>
      <point x="73" y="135"/>
    </contour>
    <contour>
      <point x="637" y="147" type="curve" smooth="yes"/>
      <point x="660" y="138"/>
      <point x="683" y="134"/>
      <point x="707" y="134" type="curve" smooth="yes"/>
      <point x="767" y="134"/>
      <point x="814" y="142"/>
      <point x="844" y="153" type="curve"/>
      <point x="844" y="980" type="line"/>
      <point x="796" y="1011"/>
      <point x="739" y="1015"/>
      <point x="693" y="1015" type="curve" smooth="yes"/>
      <point x="631" y="1015"/>
      <point x="447" y="964"/>
      <point x="442" y="617" type="curve"/>
      <point x="436" y="347"/>
      <point x="524" y="191"/>
    </contour>
  </outline>
</glyph>
<glyph name="g" format="1">
  <advance width="1276"/>
  <unicode hex="0067"/>
  <outline>
    <contour>
      <point x="238" y="35" type="curve"/>
      <point x="135" y="75"/>
      <point x="126" y="144"/>
      <point x="126" y="224" type="curve" smooth="yes"/>
      <point x="126" y="287"/>
      <point x="192" y="389"/>
      <point x="262" y="447" type="curve"/>
      <point x="140" y="505"/>
      <point x="68" y="607"/>
      <point x="68" y="753" type="curve" smooth="yes"/>
      <point x="68" y="1034"/>
      <point x="342" y="1147"/>
      <point x="605" y="1151" type="curve" smooth="yes"/>
      <point x="756" y="1153"/>
      <point x="884" y="1124"/>
      <point x="971" y="1057" type="curve"/>
      <point x="997" y="1110"/>
      <point x="1057" y="1150"/>
      <point x="1194" y="1150" type="curve" smooth="yes"/>
      <point x="1282" y="1150" type="line"/>
      <point x="1282" y="910" type="line"/>
      <point x="1075" y="910" type="line"/>
      <point x="1087" y="873"/>
      <point x="1093" y="832"/>
      <point x="1093" y="786" type="curve" smooth="yes"/>
      <point x="1093" y="515"/>
      <point x="876" y="387"/>
      <point x="578" y="387" type="curve" smooth="yes"/>
      <point x="514" y="387"/>
      <point x="455" y="392"/>
      <point x="402" y="402" type="curve"/>
      <point x="392" y="378"/>
      <point x="386" y="351"/>
      <point x="386" y="329" type="curve" smooth="yes"/>
      <point x="386" y="248"/>
      <point x="438" y="216"/>
      <point x="529" y="216" type="curve" smooth="yes"/>
      <point x="763" y="216" type="line" smooth="yes"/>
      <point x="1118" y="216"/>
      <point x="1246" y="123"/>
      <point x="1246" y="-111" type="curve" smooth="yes"/>
      <point x="1246" y="-340"/>
      <point x="1018" y="-531"/>
      <point x="582" y="-531" type="curve" smooth="yes"/>
      <point x="271" y="-531"/>
      <point x="69" y="-444"/>
      <point x="69" y="-235" type="curve" smooth="yes"/>
      <point x="69" y="-99"/>
      <point x="161" y="-11"/>
    </contour>
    <contour>
      <point x="602" y="547" type="curve" smooth="yes"/>
      <point x="727" y="547"/>
      <point x="767" y="663"/>
      <point x="767" y="774" type="curve" smooth="yes"/>
      <point x="767" y="925"/>
      <point x="703" y="1011"/>
      <point x="584" y="1011" type="curve" smooth="yes"/>
      <point x="503" y="1011"/>
      <point x="414" y="963"/>
      <point x="414" y="830" type="curve" smooth="yes"/>
      <point x="414" y="677"/>
      <point x="451" y="547"/>
    </contour>
    <contour>
      <point x="368" y="-138" type="curve" smooth="yes"/>
      <point x="368" y="-294"/>
      <point x="486" y="-372"/>
      <point x="649" y="-372" type="curve" smooth="yes"/>
      <point x="826" y="-372"/>
      <point x="922" y="-339"/>
      <point x="922" y="-190" type="curve" smooth="yes"/>
      <point x="922" y="-106"/>
      <point x="925" y="0"/>
      <point x="697" y="0" type="curve" smooth="yes"/>
      <point x="520" y="0" type="line" smooth="yes"/>
      <point x="474" y="0"/>
      <point x="434" y="1"/>
      <point x="398" y="4" type="curve"/>
      <point x="381" y="-28"/>
      <point x="368" y="-72"/>
    </contour>
  </outline>
</glyph>
<glyph name="j" format="1">
  <advance width="684"/>
  <unicode hex="006A"/>
  <outline>
    <contour>
      <point x="319" y="1325" type="curve" smooth="yes"/>
      <point x="214" y="1325"/>
      <point x="114" y="1396"/>
      <point x="114" y="1513" type="curve" smooth="yes"/>
      <point x="114" y="1640"/>
      <point x="241" y="1737"/>
      <point x="358" y="1737" type="curve" smooth="yes"/>
      <point x="501" y="1737"/>
      <point x="564" y="1651"/>
      <point x="564" y="1548" type="curve" smooth="yes"/>
      <point x="564" y="1412"/>
      <point x="443" y="1325"/>
    </contour>
    <contour>
      <point x="192" y="-6" type="curve" smooth="yes"/>
      <point x="192" y="786" type="line"/>
      <point x="82" y="933" type="line"/>
      <point x="82" y="1021" type="line"/>
      <point x="465" y="1151" type="line"/>
      <point x="546" y="1124" type="line"/>
      <point x="546" y="-48" type="line" smooth="yes"/>
      <point x="546" y="-360"/>
      <point x="403" y="-542"/>
      <point x="167" y="-542" type="curve" smooth="yes"/>
      <point x="74" y="-542"/>
      <point x="-29" y="-515"/>
      <point x="-40" y="-506" type="curve"/>
      <point x="-40" y="-318" type="line"/>
      <point x="-17" y="-325"/>
      <point x="56" y="-329"/>
      <point x="81" y="-329" type="curve" smooth="yes"/>
      <point x="182" y="-329"/>
      <point x="192" y="-223"/>
    </contour>
  </outline>
</glyph>
<glyph name="m" format="1">
  <advance width="2168"/>
  <unicode hex="006D"/>
  <outline>
    <contour>
      <point x="98" y="0" type="line"/>
      <point x="98" y="136" type="line"/>
      <point x="222" y="161" type="line"/>
      <point x="222" y="819" type="line"/>
      <point x="86" y="915" type="line"/>
      <point x="86" y="1041" type="line"/>
      <point x="458" y="1151" type="line"/>
      <point x="532" y="1132" type="line"/>
      <point x="532" y="984" type="line"/>
      <point x="615" y="1071"/>
      <point x="758" y="1146"/>
      <point x="897" y="1154" type="curve" smooth="yes"/>
      <point x="1042" y="1162"/>
      <point x="1178" y="1127"/>
      <point x="1237" y="995" type="curve"/>
      <point x="1321" y="1072"/>
      <point x="1437" y="1151"/>
      <point x="1607" y="1151" type="curve" smooth="yes"/>
      <point x="1871" y="1151"/>
      <point x="1982" y="977"/>
      <point x="1982" y="674" type="curve" smooth="yes"/>
      <point x="1982" y="163" type="line"/>
      <point x="2122" y="136" type="line"/>
      <point x="2122" y="0" type="line"/>
      <point x="1511" y="0" type="line"/>
      <point x="1511" y="136" type="line"/>
      <point x="1628" y="164" type="line"/>
      <point x="1628" y="629" type="line" smooth="yes"/>
      <point x="1628" y="884"/>
      <point x="1569" y="924"/>
      <point x="1421" y="924" type="curve" smooth="yes"/>
      <point x="1375" y="924"/>
      <point x="1316" y="900"/>
      <point x="1276" y="873" type="curve"/>
      <point x="1283" y="840"/>
      <point x="1286" y="796"/>
      <point x="1286" y="704" type="curve" smooth="yes"/>
      <point x="1286" y="163" type="line"/>
      <point x="1428" y="136" type="line"/>
      <point x="1428" y="0" type="line"/>
      <point x="790" y="0" type="line"/>
      <point x="790" y="136" type="line"/>
      <point x="932" y="165" type="line"/>
      <point x="932" y="636" type="line" smooth="yes"/>
      <point x="932" y="893"/>
      <point x="852" y="934"/>
      <point x="705" y="922" type="curve" smooth="yes"/>
      <point x="672" y="919"/>
      <point x="598" y="897"/>
      <point x="576" y="872" type="curve"/>
      <point x="576" y="164" type="line"/>
      <point x="707" y="136" type="line"/>
      <point x="707" y="0" type="line"/>
    </contour>
  </outline>
</glyph>
<glyph name="o" format="1">
  <advance width="1335"/>
  <unicode hex="006F"/>
  <outline>
    <contour>
      <point x="74" y="561" type="curve" smooth="yes"/>
      <point x="79" y="971"/>
      <point x="371" y="1148"/>
      <point x="686" y="1152" type="curve" smooth="yes"/>
      <point x="1043" y="1156"/>
      <point x="1262" y="963"/>
      <point x="1262" y="591" type="curve" smooth="yes"/>
      <point x="1262" y="170"/>
      <point x="975" y="-23"/>
      <point x="658" y="-24" type="curve" smooth="yes"/>
      <point x="232" y="-25"/>
      <point x="70" y="240"/>
    </contour>
    <contour>
      <point x="669" y="122" type="curve" smooth="yes"/>
      <point x="855" y="122"/>
      <point x="886" y="363"/>
      <point x="886" y="574" type="curve" smooth="yes"/>
      <point x="886" y="764"/>
      <point x="856" y="1006"/>
      <point x="677" y="1006" type="curve" smooth="yes"/>
      <point x="491" y="1006"/>
      <point x="450" y="785"/>
      <point x="450" y="589" type="curve" smooth="yes"/>
      <point x="450" y="418"/>
      <point x="490" y="122"/>
    </contour>
  </outline>
</glyph>
<glyph name="q" format="1">
  <advance width="1336"/>
  <unicode hex="0071"/>
  <outline>
    <contour>
      <point x="73" y="552" type="curve" smooth="yes"/>
      <point x="73" y="886"/>
      <point x="345" y="1151"/>
      <point x="735" y="1151" type="curve" smooth="yes"/>
      <point x="804" y="1151"/>
      <point x="940" y="1135"/>
      <point x="1008" y="1088" type="curve"/>
      <point x="1146" y="1151" type="line"/>
      <point x="1198" y="1128" type="line"/>
      <point x="1198" y="-355" type="line"/>
      <point x="1330" y="-379" type="line"/>
      <point x="1330" y="-511" type="line"/>
      <point x="653" y="-511" type="line"/>
      <point x="653" y="-379" type="line"/>
      <point x="844" y="-356" type="line"/>
      <point x="844" y="-47" type="line"/>
      <point x="857" y="76" type="line"/>
      <point x="821" y="40"/>
      <point x="735" y="-24"/>
      <point x="582" y="-24" type="curve" smooth="yes"/>
      <point x="373" y="-24"/>
      <point x="73" y="63"/>
    </contour>
    <contour>
      <point x="696" y="177" type="curve" smooth="yes"/>
      <point x="759" y="177"/>
      <point x="811" y="192"/>
      <point x="844" y="218" type="curve"/>
      <point x="844" y="944" type="line"/>
      <point x="829" y="974"/>
      <point x="778" y="1000"/>
      <point x="727" y="1000" type="curve" smooth="yes"/>
      <point x="503" y="1000"/>
      <point x="448" y="839"/>
      <point x="442" y="603" type="curve" smooth="yes"/>
      <point x="435" y="353"/>
      <point x="511" y="177"/>
    </contour>
  </outline>
</glyph>
<glyph name="s" format="1">
  <advance width="1095"/>
  <unicode hex="0073"/>
  <outline>
    <contour>
      <point x="99" y="66" type="curve"/>
      <point x="99" y="329" type="line"/>
      <point x="264" y="329" type="line"/>
      <point x="327" y="220" type="line"/>
      <point x="360" y="186"/>
      <point x="416" y="116"/>
      <point x="515" y="111" type="curve" smooth="yes"/>
      <point x="634" y="105"/>
      <point x="698" y="156"/>
      <point x="697" y="236" type="curve"/>
      <point x="695" y="309"/>
      <point x="573" y="365"/>
      <point x="437" y="427" type="curve" smooth="yes"/>
      <point x="248" y="514"/>
      <point x="78" y="621"/>
      <point x="81" y="830" type="curve" smooth="yes"/>
      <point x="84" y="1068"/>
      <point x="370" y="1146"/>
      <point x="560" y="1151" type="curve" smooth="yes"/>
      <point x="712" y="1154"/>
      <point x="876" y="1124"/>
      <point x="958" y="1093" type="curve"/>
      <point x="958" y="820" type="line"/>
      <point x="782" y="820" type="line"/>
      <point x="726" y="944" type="line"/>
      <point x="691" y="985"/>
      <point x="637" y="1023"/>
      <point x="578" y="1023" type="curve" smooth="yes"/>
      <point x="504" y="1023"/>
      <point x="431" y="996"/>
      <point x="431" y="931" type="curve" smooth="yes"/>
      <point x="431" y="844"/>
      <point x="507" y="782"/>
      <point x="613" y="733" type="curve" smooth="yes"/>
      <point x="804" y="645"/>
      <point x="1035" y="567"/>
      <point x="1035" y="336" type="curve" smooth="yes"/>
      <point x="1035" y="72"/>
      <point x="790" y="-24"/>
      <point x="501" y="-24" type="curve" smooth="yes"/>
      <point x="373" y="-24"/>
      <point x="207" y="3"/>
    </contour>
  </outline>
</glyph>
<glyph name="t" format="1">
  <advance width="924"/>
  <unicode hex="0074"/>
  <outline>
    <contour>
      <point x="181" y="345" type="curve" smooth="yes"/>
      <point x="181" y="940" type="line"/>
      <point x="29" y="940" type="line"/>
      <point x="29" y="1053" type="line"/>
      <point x="102" y="1065"/>
      <point x="167" y="1086"/>
      <point x="212" y="1126" type="curve" smooth="yes"/>
      <point x="254" y="1164"/>
      <point x="297" y="1243"/>
      <point x="341" y="1386" type="curve"/>
      <point x="509" y="1386" type="line"/>
      <point x="509" y="1119" type="line"/>
      <point x="851" y="1119" type="line"/>
      <point x="851" y="940" type="line"/>
      <point x="525" y="940" type="line"/>
      <point x="525" y="575" type="line" smooth="yes"/>
      <point x="525" y="218"/>
      <point x="553" y="178"/>
      <point x="648" y="178" type="curve" smooth="yes"/>
      <point x="702" y="178"/>
      <point x="786" y="191"/>
      <point x="822" y="213" type="curve"/>
      <point x="874" y="100" type="line"/>
      <point x="811" y="34"/>
      <point x="649" y="-24"/>
      <point x="470" y="-24" type="curve" smooth="yes"/>
      <point x="239" y="-24"/>
      <point x="181" y="90"/>
    </contour>
  </outline>
</glyph>
<glyph name="u" format="1">
  <advance width="1331"/>
  <unicode hex="0075"/>
  <outline>
    <contour>
      <point x="147" y="391" type="curve" smooth="yes"/>
      <point x="147" y="868" type="line"/>
      <point x="53" y="938" type="line"/>
      <point x="53" y="1060" type="line"/>
      <point x="435" y="1151" type="line"/>
      <point x="488" y="1134" type="line"/>
      <point x="488" y="438" type="line" smooth="yes"/>
      <point x="488" y="258"/>
      <point x="517" y="167"/>
      <point x="641" y="167" type="curve" smooth="yes"/>
      <point x="708" y="167"/>
      <point x="786" y="188"/>
      <point x="819" y="220" type="curve"/>
      <point x="819" y="851" type="line"/>
      <point x="692" y="922" type="line"/>
      <point x="692" y="1060" type="line"/>
      <point x="1110" y="1151" type="line"/>
      <point x="1166" y="1134" type="line"/>
      <point x="1166" y="136" type="line"/>
      <point x="1280" y="136" type="line"/>
      <point x="1280" y="29" type="line"/>
      <point x="1236" y="-4"/>
      <point x="1106" y="-28"/>
      <point x="997" y="-28" type="curve" smooth="yes"/>
      <point x="918" y="-28"/>
      <point x="854" y="2"/>
      <point x="854" y="82" type="curve" smooth="yes"/>
      <point x="854" y="120" type="line"/>
      <point x="778" y="28"/>
      <point x="619" y="-28"/>
      <point x="524" y="-28" type="curve" smooth="yes"/>
      <point x="245" y="-28"/>
      <point x="147" y="98"/>
    </contour>
  </outline>
</glyph>
<glyph name="v" format="1">
  <advance width="1285"/>
  <unicode hex="0076"/>
  <outline>
    <contour>
      <point x="504" y="-5" type="line"/>
      <point x="107" y="916" type="line"/>
      <point x="4" y="943" type="line"/>
      <point x="4" y="1119" type="line"/>
      <point x="581" y="1119" type="line"/>
      <point x="581" y="941" type="line"/>
      <point x="492" y="912" type="line"/>
      <point x="655" y="439" type="line"/>
      <point x="709" y="250" type="line"/>
      <point x="752" y="442" type="line"/>
      <point x="898" y="913" type="line"/>
      <point x="777" y="940" type="line"/>
      <point x="777" y="1119" type="line"/>
      <point x="1279" y="1119" type="line"/>
      <point x="1279" y="941" type="line"/>
      <point x="1164" y="905" type="line"/>
      <point x="793" y="-5" type="line"/>
    </contour>
  </outline>
</glyph>
<glyph name="x" format="1">
  <advance width="1298"/>
  <unicode hex="0078"/>
  <outline>
    <contour>
      <point x="0" y="0" type="line"/>
      <point x="0" y="136" type="line"/>
      <point x="164" y="169" type="line"/>
      <point x="473" y="535" type="line"/>
      <point x="137" y="915" type="line"/>
      <point x="8" y="940" type="line"/>
      <point x="8" y="1119" type="line"/>
      <point x="636" y="1119" type="line"/>
      <point x="636" y="940" type="line"/>
      <point x="543" y="915" type="line"/>
      <point x="580" y="861" type="line"/>
      <point x="702" y="698" type="line"/>
      <point x="728" y="740" type="line"/>
      <point x="869" y="921" type="line"/>
      <point x="742" y="940" type="line"/>
      <point x="742" y="1119" type="line"/>
      <point x="1297" y="1119" type="line"/>
      <point x="1297" y="940" type="line"/>
      <point x="1112" y="910" type="line"/>
      <point x="819" y="591" type="line"/>
      <point x="1170" y="167" type="line"/>
      <point x="1298" y="136" type="line"/>
      <point x="1298" y="0" type="line"/>
      <point x="680" y="0" type="line"/>
      <point x="680" y="136" type="line"/>
      <point x="764" y="165" type="line"/>
      <point x="704" y="245" type="line"/>
      <point x="583" y="404" type="line"/>
      <point x="569" y="369" type="line"/>
      <point x="437" y="172" type="line"/>
      <point x="581" y="136" type="line"/>
      <point x="581" y="0" type="line"/>
    </contour>
  </outline>
</glyph>
<glyph name="braceleft" format="1">
  <advance width="1133"/>
  <unicode hex="007B"/>
  <outline>
    <contour>
      <point x="259" y="10" type="curve" smooth="yes"/>
      <point x="259" y="559" type="line" smooth="yes"/>
      <point x="259" y="624"/>
      <point x="175" y="665"/>
      <point x="82" y="673" type="curve"/>
      <point x="82" y="894" type="line"/>
      <point x="183" y="906"/>
      <point x="259" y="925"/>
      <point x="259" y="999" type="curve" smooth="yes"/>
      <point x="259" y="1558" type="line" smooth="yes"/>
      <point x="259" y="1755"/>
      <point x="381" y="1807"/>
      <point x="535" y="1807" type="curve" smooth="yes"/>
      <point x="644" y="1807"/>
      <point x="795" y="1758"/>
      <point x="881" y="1733" type="curve"/>
      <point x="881" y="1691"/>
      <point x="880" y="1649"/>
      <point x="880" y="1607" type="curve"/>
      <point x="573" y="1607" type="line"/>
      <point x="573" y="971" type="line" smooth="yes"/>
      <point x="573" y="923"/>
      <point x="558" y="891"/>
      <point x="531" y="865" type="curve" smooth="yes"/>
      <point x="492" y="828"/>
      <point x="430" y="806"/>
      <point x="359" y="776" type="curve"/>
      <point x="427" y="749"/>
      <point x="486" y="726"/>
      <point x="525" y="689" type="curve" smooth="yes"/>
      <point x="555" y="661"/>
      <point x="573" y="625"/>
      <point x="573" y="575" type="curve" smooth="yes"/>
      <point x="573" y="-59" type="line"/>
      <point x="880" y="-59" type="line"/>
      <point x="880" y="-102"/>
      <point x="881" y="-144"/>
      <point x="881" y="-187" type="curve"/>
      <point x="795" y="-211"/>
      <point x="663" y="-259"/>
      <point x="554" y="-259" type="curve" smooth="yes"/>
      <point x="400" y="-259"/>
      <point x="259" y="-217"/>
    </contour>
  </outline>
</glyph>
<glyph name="bar" format="1">
  <advance width="1088"/>
  <unicode hex="007C"/>
  <outline>
    <contour>
      <point x="367" y="-186" type="line"/>
      <point x="367" y="1780" type="line"/>
      <point x="721" y="1780" type="line"/>
      <point x="721" y="-186" type="line"/>
    </contour>
  </outline>
</glyph>
<glyph name="braceright" format="1">
  <advance width="1133"/>
  <unicode hex="007D"/>
  <outline>
    <contour>
      <point x="247" y="-59" type="curve"/>
      <point x="554" y="-59" type="line"/>
      <point x="554" y="575" type="line" smooth="yes"/>
      <point x="554" y="625"/>
      <point x="572" y="661"/>
      <point x="602" y="689" type="curve" smooth="yes"/>
      <point x="640" y="726"/>
      <point x="700" y="749"/>
      <point x="767" y="776" type="curve"/>
      <point x="697" y="806"/>
      <point x="635" y="828"/>
      <point x="596" y="865" type="curve" smooth="yes"/>
      <point x="569" y="891"/>
      <point x="554" y="923"/>
      <point x="554" y="971" type="curve" smooth="yes"/>
      <point x="554" y="1607" type="line"/>
      <point x="247" y="1607" type="line"/>
      <point x="247" y="1649"/>
      <point x="246" y="1691"/>
      <point x="246" y="1733" type="curve"/>
      <point x="332" y="1758"/>
      <point x="483" y="1807"/>
      <point x="592" y="1807" type="curve" smooth="yes"/>
      <point x="746" y="1807"/>
      <point x="868" y="1755"/>
      <point x="868" y="1558" type="curve" smooth="yes"/>
      <point x="868" y="999" type="line" smooth="yes"/>
      <point x="868" y="925"/>
      <point x="944" y="906"/>
      <point x="1045" y="894" type="curve"/>
      <point x="1045" y="673" type="line"/>
      <point x="952" y="665"/>
      <point x="868" y="624"/>
      <point x="868" y="559" type="curve" smooth="yes"/>
      <point x="868" y="10" type="line" smooth="yes"/>
      <point x="868" y="-217"/>
      <point x="727" y="-259"/>
      <point x="573" y="-259" type="curve" smooth="yes"/>
      <point x="464" y="-259"/>
      <point x="332" y="-211"/>
      <point x="246" y="-187" type="curve"/>
      <point x="246" y="-144"/>
      <point x="247" y="-102"/>
    </contour>
  </outline>
</glyph>
<glyph name="exclamdown" format="1">
  <advance width="813"/>
  <unicode hex="00A1"/>
  <outline>
    <contour>
      <point x="403" y="1027" type="curve" smooth="yes"/>
      <point x="302" y="1027"/>
      <point x="200" y="1094"/>
      <point x="200" y="1213" type="curve" smooth="yes"/>
      <point x="200" y="1342"/>
      <point x="329" y="1440"/>
      <point x="438" y="1440" type="curve" smooth="yes"/>
      <point x="579" y="1440"/>
      <point x="645" y="1353"/>
      <point x="645" y="1246" type="curve" smooth="yes"/>
      <point x="645" y="1110"/>
      <point x="521" y="1027"/>
    </contour>
    <contour>
      <point x="167" y="-445" type="line"/>
      <point x="320" y="825" type="line"/>
      <point x="502" y="825" type="line"/>
      <point x="646" y="-445" type="line"/>
    </contour>
  </outline>
</glyph>
<glyph name="yen" format="1">
  <advance width="1526"/>
  <unicode hex="00A5"/>
  <outline>
    <contour>
      <point x="325" y="0" type="line"/>
      <point x="325" y="140" type="line"/>
      <point x="565" y="185" type="line"/>
      <point x="565" y="350" type="line"/>
      <point x="205" y="350" type="line"/>
      <point x="205" y="517" type="line"/>
      <point x="565" y="517" type="line"/>
      <point x="565" y="654" type="line"/>
      <point x="531" y="711" type="line"/>
      <point x="205" y="711" type="line"/>
      <point x="205" y="879" type="line"/>
      <point x="432" y="879" type="line"/>
      <point x="144" y="1369" type="line"/>
      <point x="28" y="1389" type="line"/>
      <point x="28" y="1553" type="line"/>
      <point x="658" y="1553" type="line"/>
      <point x="658" y="1392" type="line"/>
      <point x="552" y="1372" type="line"/>
      <point x="719" y="1013" type="line"/>
      <point x="776" y="879" type="line"/>
      <point x="790" y="879" type="line"/>
      <point x="855" y="1022" type="line" smooth="yes"/>
      <point x="905" y="1130"/>
      <point x="955" y="1250"/>
      <point x="1005" y="1365" type="curve"/>
      <point x="850" y="1389" type="line"/>
      <point x="849" y="1553" type="line"/>
      <point x="1412" y="1553" type="line"/>
      <point x="1412" y="1389" type="line"/>
      <point x="1272" y="1349" type="line"/>
      <point x="1018" y="879" type="line"/>
      <point x="1296" y="879" type="line"/>
      <point x="1296" y="711" type="line"/>
      <point x="927" y="711" type="line"/>
      <point x="921" y="700" type="line"/>
      <point x="921" y="517" type="line"/>
      <point x="1296" y="517" type="line"/>
      <point x="1296" y="350" type="line"/>
      <point x="921" y="350" type="line"/>
      <point x="921" y="187" type="line"/>
      <point x="1179" y="140" type="line"/>
      <point x="1179" y="0" type="line"/>
    </contour>
  </outline>
</glyph>
<glyph name="dieresis" format="1">
  <advance width="1062"/>
  <unicode hex="00A8"/>
  <outline>
    <contour>
      <point x="781" y="1349" type="curve" smooth="yes"/>
      <point x="688" y="1349"/>
      <point x="600" y="1399"/>
      <point x="600" y="1489" type="curve" smooth="yes"/>
      <point x="600" y="1582"/>
      <point x="706" y="1650"/>
      <point x="807" y="1650" type="curve" smooth="yes"/>
      <point x="937" y="1650"/>
      <point x="985" y="1590"/>
      <point x="985" y="1512" type="curve" smooth="yes"/>
      <point x="985" y="1412"/>
      <point x="888" y="1349"/>
    </contour>
    <contour>
      <point x="253" y="1348" type="curve" smooth="yes"/>
      <point x="157" y="1348"/>
      <point x="76" y="1397"/>
      <point x="76" y="1486" type="curve" smooth="yes"/>
      <point x="76" y="1582"/>
      <point x="178" y="1650"/>
      <point x="281" y="1650" type="curve" smooth="yes"/>
      <point x="411" y="1650"/>
      <point x="465" y="1589"/>
      <point x="465" y="1510" type="curve" smooth="yes"/>
      <point x="465" y="1411"/>
      <point x="363" y="1348"/>
    </contour>
  </outline>
</glyph>
<glyph name="copyright" format="1">
  <advance width="2112"/>
  <unicode hex="00A9"/>
  <outline>
    <contour>
      <point x="1056" y="219" type="curve" smooth="yes"/>
      <point x="540" y="219"/>
      <point x="183" y="582"/>
      <point x="183" y="1069" type="curve" smooth="yes"/>
      <point x="183" y="1556"/>
      <point x="569" y="1920"/>
      <point x="1056" y="1920" type="curve" smooth="yes"/>
      <point x="1539" y="1920"/>
      <point x="1929" y="1566"/>
      <point x="1929" y="1069" type="curve" smooth="yes"/>
      <point x="1929" y="604"/>
      <point x="1539" y="219"/>
    </contour>
    <contour>
      <point x="1055" y="374" type="curve" smooth="yes"/>
      <point x="1433" y="374"/>
      <point x="1742" y="674"/>
      <point x="1742" y="1069" type="curve" smooth="yes"/>
      <point x="1742" y="1467"/>
      <point x="1433" y="1765"/>
      <point x="1055" y="1765" type="curve" smooth="yes"/>
      <point x="674" y="1765"/>
      <point x="369" y="1467"/>
      <point x="369" y="1069" type="curve" smooth="yes"/>
      <point x="369" y="674"/>
      <point x="684" y="374"/>
    </contour>
    <contour>
      <point x="1056" y="586" type="curve" smooth="yes"/>
      <point x="743" y="586"/>
      <point x="580" y="784"/>
      <point x="580" y="1061" type="curve" smooth="yes"/>
      <point x="580" y="1356"/>
      <point x="805" y="1589"/>
      <point x="1130" y="1589" type="curve" smooth="yes"/>
      <point x="1278" y="1589"/>
      <point x="1340" y="1569"/>
      <point x="1395" y="1539" type="curve"/>
      <point x="1395" y="1233" type="line"/>
      <point x="1205" y="1233" type="line"/>
      <point x="1137" y="1387" type="line"/>
      <point x="1123" y="1400"/>
      <point x="1086" y="1404"/>
      <point x="1059" y="1405" type="curve" smooth="yes"/>
      <point x="958" y="1406"/>
      <point x="914" y="1310"/>
      <point x="915" y="1126" type="curve" smooth="yes"/>
      <point x="916" y="914"/>
      <point x="1038" y="817"/>
      <point x="1154" y="817" type="curve" smooth="yes"/>
      <point x="1208" y="817"/>
      <point x="1292" y="817"/>
      <point x="1372" y="859" type="curve"/>
      <point x="1415" y="732" type="line"/>
      <point x="1350" y="646"/>
      <point x="1183" y="586"/>
    </contour>
  </outline>
</glyph>
<glyph name="ordfeminine" format="1">
  <advance width="1169"/>
  <unicode hex="00AA"/>
  <outline>
    <contour>
      <point x="435" y="733" type="curve" smooth="yes"/>
      <point x="303" y="733"/>
      <point x="165" y="819"/>
      <point x="165" y="986" type="curve" smooth="yes"/>
      <point x="165" y="1227"/>
      <point x="540" y="1280"/>
      <point x="684" y="1280" type="curve"/>
      <point x="684" y="1298" type="line" smooth="yes"/>
      <point x="684" y="1404"/>
      <point x="613" y="1419"/>
      <point x="507" y="1419" type="curve" smooth="yes"/>
      <point x="412" y="1419"/>
      <point x="313" y="1391"/>
      <point x="277" y="1366" type="curve"/>
      <point x="225" y="1515" type="line"/>
      <point x="263" y="1538"/>
      <point x="426" y="1592"/>
      <point x="614" y="1592" type="curve" smooth="yes"/>
      <point x="806" y="1592"/>
      <point x="994" y="1556"/>
      <point x="993" y="1296" type="curve" smooth="yes"/>
      <point x="991" y="886" type="line"/>
      <point x="1074" y="886" type="line"/>
      <point x="1074" y="780" type="line"/>
      <point x="1015" y="766"/>
      <point x="906" y="733"/>
      <point x="819" y="733" type="curve" smooth="yes"/>
      <point x="764" y="733"/>
      <point x="718" y="744"/>
      <point x="700" y="811" type="curve"/>
      <point x="650" y="769"/>
      <point x="564" y="733"/>
    </contour>
    <contour>
      <point x="539" y="904" type="curve" smooth="yes"/>
      <point x="577" y="892"/>
      <point x="620" y="896"/>
      <point x="685" y="914" type="curve"/>
      <point x="682" y="929" type="line"/>
      <point x="683" y="1164" type="line"/>
      <point x="596" y="1153"/>
      <point x="459" y="1118"/>
      <point x="459" y="1014" type="curve" smooth="yes"/>
      <point x="459" y="973"/>
      <point x="482" y="923"/>
    </contour>
  </outline>
</glyph>
<glyph name="registered" format="1">
  <advance width="2112"/>
  <unicode hex="00AE"/>
  <outline>
    <contour>
      <point x="1056" y="219" type="curve" smooth="yes"/>
      <point x="540" y="219"/>
      <point x="183" y="582"/>
      <point x="183" y="1069" type="curve" smooth="yes"/>
      <point x="183" y="1556"/>
      <point x="569" y="1920"/>
      <point x="1056" y="1920" type="curve" smooth="yes"/>
      <point x="1539" y="1920"/>
      <point x="1929" y="1566"/>
      <point x="1929" y="1069" type="curve" smooth="yes"/>
      <point x="1929" y="604"/>
      <point x="1539" y="219"/>
    </contour>
    <contour>
      <point x="1055" y="374" type="curve" smooth="yes"/>
      <point x="1433" y="374"/>
      <point x="1742" y="674"/>
      <point x="1742" y="1069" type="curve" smooth="yes"/>
      <point x="1742" y="1467"/>
      <point x="1433" y="1765"/>
      <point x="1055" y="1765" type="curve" smooth="yes"/>
      <point x="674" y="1765"/>
      <point x="369" y="1467"/>
      <point x="369" y="1069" type="curve" smooth="yes"/>
      <point x="369" y="674"/>
      <point x="684" y="374"/>
    </contour>
    <contour>
      <point x="599" y="613" type="line"/>
      <point x="599" y="734" type="line"/>
      <point x="677" y="772" type="line"/>
      <point x="677" y="1413" type="line"/>
      <point x="599" y="1440" type="line"/>
      <point x="599" y="1575" type="line"/>
      <point x="821" y="1575" type="line"/>
      <point x="880" y="1573"/>
      <point x="1000" y="1579"/>
      <point x="1102" y="1579" type="curve" smooth="yes"/>
      <point x="1361" y="1579"/>
      <point x="1500" y="1505"/>
      <point x="1504" y="1322" type="curve"/>
      <point x="1504" y="1193"/>
      <point x="1429" y="1036"/>
      <point x="1246" y="1036" type="curve"/>
      <point x="1443" y="1029"/>
      <point x="1430" y="745"/>
      <point x="1554" y="745" type="curve"/>
      <point x="1554" y="616" type="line"/>
      <point x="1256" y="616" type="line" smooth="yes"/>
      <point x="1157" y="616"/>
      <point x="1179" y="931"/>
      <point x="998" y="983" type="curve"/>
      <point x="998" y="756" type="line"/>
      <point x="1069" y="734" type="line"/>
      <point x="1069" y="613" type="line"/>
    </contour>
    <contour>
      <point x="998" y="1139" type="line"/>
      <point x="1021" y="1132"/>
      <point x="1036" y="1132"/>
      <point x="1070" y="1132" type="curve" smooth="yes"/>
      <point x="1119" y="1131"/>
      <point x="1181" y="1165"/>
      <point x="1181" y="1280" type="curve" smooth="yes"/>
      <point x="1181" y="1390"/>
      <point x="1143" y="1419"/>
      <point x="1014" y="1419" type="curve" smooth="yes"/>
      <point x="1008" y="1419"/>
      <point x="994" y="1414"/>
      <point x="998" y="1411" type="curve"/>
    </contour>
  </outline>
</glyph>
<glyph name="degree" format="1">
  <advance width="911"/>
  <unicode hex="00B0"/>
  <outline>
    <contour>
      <point x="455" y="893" type="curve" smooth="yes"/>
      <point x="259" y="893"/>
      <point x="98" y="1052"/>
      <point x="98" y="1244" type="curve" smooth="yes"/>
      <point x="98" y="1436"/>
      <point x="259" y="1594"/>
      <point x="455" y="1594" type="curve" smooth="yes"/>
      <point x="653" y="1594"/>
      <point x="813" y="1431"/>
      <point x="813" y="1244" type="curve" smooth="yes"/>
      <point x="813" y="1052"/>
      <point x="653" y="893"/>
    </contour>
    <contour>
      <point x="454" y="1075" type="curve" smooth="yes"/>
      <point x="545" y="1075"/>
      <point x="615" y="1146"/>
      <point x="615" y="1244" type="curve" smooth="yes"/>
      <point x="615" y="1337"/>
      <point x="545" y="1416"/>
      <point x="454" y="1416" type="curve" smooth="yes"/>
      <point x="359" y="1416"/>
      <point x="293" y="1343"/>
      <point x="293" y="1244" type="curve" smooth="yes"/>
      <point x="293" y="1146"/>
      <point x="359" y="1075"/>
    </contour>
  </outline>
</glyph>
<glyph name="mu" format="1">
  <advance width="1564"/>
  <unicode hex="00B5"/>
  <unicode hex="03bc"/>
  <outline>
    <contour>
      <point x="234" y="-373" type="line"/>
      <point x="234" y="858" type="line"/>
      <point x="125" y="928" type="line"/>
      <point x="125" y="1056" type="line"/>
      <point x="528" y="1151" type="line"/>
      <point x="581" y="1134" type="line"/>
      <point x="581" y="412" type="line" smooth="yes"/>
      <point x="581" y="232"/>
      <point x="660" y="185"/>
      <point x="764" y="185" type="curve" smooth="yes"/>
      <point x="831" y="185"/>
      <point x="890" y="196"/>
      <point x="912" y="210" type="curve"/>
      <point x="912" y="851" type="line"/>
      <point x="785" y="922" type="line"/>
      <point x="785" y="1060" type="line"/>
      <point x="1203" y="1151" type="line"/>
      <point x="1259" y="1134" type="line"/>
      <point x="1259" y="136" type="line"/>
      <point x="1373" y="136" type="line"/>
      <point x="1373" y="29" type="line"/>
      <point x="1329" y="-4"/>
      <point x="1199" y="-28"/>
      <point x="1090" y="-28" type="curve" smooth="yes"/>
      <point x="1011" y="-28"/>
      <point x="947" y="2"/>
      <point x="947" y="82" type="curve" smooth="yes"/>
      <point x="947" y="110" type="line"/>
      <point x="871" y="18"/>
      <point x="771" y="-28"/>
      <point x="676" y="-28" type="curve" smooth="yes"/>
      <point x="642" y="-28"/>
      <point x="611" y="-24"/>
      <point x="581" y="-18" type="curve"/>
      <point x="581" y="-373" type="line"/>
    </contour>
  </outline>
</glyph>
<glyph name="paragraph" format="1">
  <advance width="1612"/>
  <unicode hex="00B6"/>
  <outline>
    <contour>
      <point x="444" y="0" type="line"/>
      <point x="444" y="143" type="line"/>
      <point x="655" y="192" type="line"/>
      <point x="655" y="656" type="line"/>
      <point x="395" y="656"/>
      <point x="164" y="795"/>
      <point x="164" y="1107" type="curve" smooth="yes"/>
      <point x="164" y="1380"/>
      <point x="313" y="1573"/>
      <point x="726" y="1573" type="curve" smooth="yes"/>
      <point x="822" y="1573"/>
      <point x="1243" y="1556"/>
      <point x="1363" y="1553" type="curve"/>
      <point x="1577" y="1553" type="line"/>
      <point x="1577" y="1384" type="line"/>
      <point x="1377" y="1325" type="line"/>
      <point x="1377" y="192" type="line"/>
      <point x="1581" y="143" type="line"/>
      <point x="1581" y="0" type="line"/>
      <point x="1114" y="0" type="line"/>
      <point x="1112" y="1361" type="line"/>
      <point x="936" y="1361" type="line"/>
      <point x="936" y="0" type="line"/>
    </contour>
  </outline>
</glyph>
<glyph name="cedilla" format="1">
  <advance width="674"/>
  <unicode hex="00B8"/>
  <outline>
    <contour>
      <point x="194" y="10" type="curve"/>
      <point x="370" y="10" type="line"/>
      <point x="365" y="-23"/>
      <point x="368" y="-90"/>
      <point x="372" y="-131" type="curve"/>
      <point x="540" y="-148"/>
      <point x="586" y="-262"/>
      <point x="586" y="-324" type="curve" smooth="yes"/>
      <point x="586" y="-457"/>
      <point x="480" y="-524"/>
      <point x="325" y="-531" type="curve" smooth="yes"/>
      <point x="201" y="-537"/>
      <point x="104" y="-512"/>
      <point x="61" y="-501" type="curve"/>
      <point x="61" y="-352" type="line"/>
      <point x="93" y="-360"/>
      <point x="170" y="-366"/>
      <point x="187" y="-366" type="curve" smooth="yes"/>
      <point x="230" y="-366"/>
      <point x="256" y="-344"/>
      <point x="256" y="-310" type="curve" smooth="yes"/>
      <point x="256" y="-271"/>
      <point x="227" y="-253"/>
      <point x="194" y="-253" type="curve" smooth="yes"/>
      <point x="178" y="-253"/>
      <point x="140" y="-256"/>
      <point x="136" y="-257" type="curve"/>
      <point x="137" y="-192"/>
      <point x="168" y="-27"/>
    </contour>
  </outline>
</glyph>
<glyph name="onequarter" format="1">
  <advance width="2732"/>
  <unicode hex="00BC"/>
  <outline>
    <contour>
      <point x="842" y="-268" type="line"/>
      <point x="1638" y="1890" type="line"/>
      <point x="1852" y="1818" type="line"/>
      <point x="1052" y="-343" type="line"/>
    </contour>
    <contour>
      <point x="295" y="718" type="line"/>
      <point x="295" y="855" type="line"/>
      <point x="554" y="895" type="line"/>
      <point x="554" y="1414" type="line"/>
      <point x="502" y="1409"/>
      <point x="389" y="1391"/>
      <point x="323" y="1379" type="curve"/>
      <point x="287" y="1534" type="line"/>
      <point x="426" y="1557"/>
      <point x="754" y="1683"/>
      <point x="803" y="1722" type="curve"/>
      <point x="884" y="1707" type="line"/>
      <point x="884" y="894" type="line"/>
      <point x="1120" y="855" type="line"/>
      <point x="1120" y="718" type="line"/>
    </contour>
    <contour>
      <point x="1470" y="256" type="line"/>
      <point x="1989" y="1056" type="line"/>
      <point x="2113" y="1056" type="line"/>
      <point x="2249" y="900" type="line"/>
      <point x="1792" y="373" type="line"/>
      <point x="1711" y="279" type="line"/>
      <point x="2032" y="314" type="line"/>
      <point x="2044" y="512" type="line"/>
      <point x="2293" y="541" type="line"/>
      <point x="2293" y="342" type="line"/>
      <point x="2492" y="364" type="line"/>
      <point x="2492" y="107" type="line"/>
      <point x="2293" y="107" type="line"/>
      <point x="2294" y="-177" type="line"/>
      <point x="2004" y="-177" type="line"/>
      <point x="2020" y="107" type="line"/>
      <point x="1521" y="107" type="line"/>
    </contour>
  </outline>
</glyph>
<glyph name="onehalf" format="1">
  <advance width="2732"/>
  <unicode hex="00BD"/>
  <outline>
    <contour>
      <point x="842" y="-268" type="line"/>
      <point x="1638" y="1881" type="line"/>
      <point x="1852" y="1818" type="line"/>
      <point x="1052" y="-343" type="line"/>
    </contour>
    <contour>
      <point x="295" y="718" type="line"/>
      <point x="295" y="855" type="line"/>
      <point x="554" y="895" type="line"/>
      <point x="554" y="1414" type="line"/>
      <point x="502" y="1409"/>
      <point x="389" y="1391"/>
      <point x="323" y="1379" type="curve"/>
      <point x="287" y="1534" type="line"/>
      <point x="426" y="1557"/>
      <point x="754" y="1683"/>
      <point x="803" y="1722" type="curve"/>
      <point x="884" y="1707" type="line"/>
      <point x="884" y="894" type="line"/>
      <point x="1120" y="855" type="line"/>
      <point x="1120" y="718" type="line"/>
    </contour>
    <contour>
      <point x="1564" y="154" type="line"/>
      <point x="1706" y="233"/>
      <point x="2190" y="502"/>
      <point x="2150" y="682" type="curve" smooth="yes"/>
      <point x="2137" y="739"/>
      <point x="2089" y="798"/>
      <point x="1974" y="798" type="curve" smooth="yes"/>
      <point x="1846" y="798"/>
      <point x="1732" y="694"/>
      <point x="1667" y="632" type="curve"/>
      <point x="1584" y="750" type="line"/>
      <point x="1645" y="858"/>
      <point x="1843" y="1008"/>
      <point x="2043" y="1008" type="curve" smooth="yes"/>
      <point x="2322" y="1008"/>
      <point x="2472" y="903"/>
      <point x="2472" y="715" type="curve" smooth="yes"/>
      <point x="2472" y="488"/>
      <point x="2208" y="349"/>
      <point x="1861" y="143" type="curve"/>
      <point x="2340" y="229" type="line"/>
      <point x="2440" y="378" type="line"/>
      <point x="2603" y="334" type="line"/>
      <point x="2535" y="-2" type="line"/>
      <point x="1627" y="-2" type="line"/>
    </contour>
  </outline>
</glyph>
<glyph name="threequarters" format="1">
  <advance width="2902"/>
  <unicode hex="00BE"/>
  <outline>
    <contour>
      <point x="842" y="-268" type="line"/>
      <point x="1638" y="1881" type="line"/>
      <point x="1852" y="1818" type="line"/>
      <point x="1052" y="-343" type="line"/>
    </contour>
    <contour>
      <point x="339" y="656" type="curve"/>
      <point x="339" y="803" type="line"/>
      <point x="398" y="788"/>
      <point x="501" y="776"/>
      <point x="557" y="780" type="curve" smooth="yes"/>
      <point x="723" y="791"/>
      <point x="824" y="841"/>
      <point x="843" y="924" type="curve" smooth="yes"/>
      <point x="850" y="956"/>
      <point x="869" y="1082"/>
      <point x="714" y="1125" type="curve"/>
      <point x="484" y="1069" type="line"/>
      <point x="487" y="1232" type="line"/>
      <point x="650" y="1281"/>
      <point x="774" y="1336"/>
      <point x="804" y="1411" type="curve" smooth="yes"/>
      <point x="811" y="1430"/>
      <point x="811" y="1454"/>
      <point x="809" y="1478" type="curve" smooth="yes"/>
      <point x="805" y="1538"/>
      <point x="709" y="1552"/>
      <point x="664" y="1553" type="curve" smooth="yes"/>
      <point x="593" y="1555"/>
      <point x="474" y="1528"/>
      <point x="371" y="1465" type="curve"/>
      <point x="300" y="1585" type="line"/>
      <point x="374" y="1655"/>
      <point x="574" y="1726"/>
      <point x="743" y="1723" type="curve" smooth="yes"/>
      <point x="1032" y="1717"/>
      <point x="1112" y="1561"/>
      <point x="1112" y="1483" type="curve" smooth="yes"/>
      <point x="1112" y="1377"/>
      <point x="1069" y="1296"/>
      <point x="916" y="1228" type="curve"/>
      <point x="1145" y="1199"/>
      <point x="1169" y="1004"/>
      <point x="1169" y="977" type="curve" smooth="yes"/>
      <point x="1169" y="802"/>
      <point x="1019" y="616"/>
      <point x="666" y="616" type="curve" smooth="yes"/>
      <point x="489" y="616"/>
      <point x="396" y="642"/>
    </contour>
    <contour>
      <point x="1470" y="256" type="line"/>
      <point x="1969" y="1056" type="line"/>
      <point x="2113" y="1056" type="line"/>
      <point x="2249" y="900" type="line"/>
      <point x="1792" y="373" type="line"/>
      <point x="1711" y="279" type="line"/>
      <point x="2032" y="314" type="line"/>
      <point x="2044" y="512" type="line"/>
      <point x="2293" y="541" type="line"/>
      <point x="2293" y="342" type="line"/>
      <point x="2492" y="364" type="line"/>
      <point x="2492" y="107" type="line"/>
      <point x="2293" y="107" type="line"/>
      <point x="2294" y="-177" type="line"/>
      <point x="2004" y="-177" type="line"/>
      <point x="2020" y="107" type="line"/>
      <point x="1521" y="107" type="line"/>
    </contour>
  </outline>
</glyph>
<glyph name="Aacute" format="1">
  <advance width="1600"/>
  <unicode hex="00C1"/>
  <outline>
    <contour>
      <point x="748" y="1593" type="curve"/>
      <point x="647" y="1700" type="line"/>
      <point x="1040" y="1920" type="line"/>
      <point x="1233" y="1728" type="line"/>
      <point x="1120" y="1643"/>
      <point x="793" y="1590"/>
    </contour>
    <contour>
      <point x="5" y="0" type="line"/>
      <point x="5" y="140" type="line"/>
      <point x="138" y="180" type="line"/>
      <point x="631" y="1553" type="line"/>
      <point x="964" y="1553" type="line"/>
      <point x="1443" y="178" type="line"/>
      <point x="1595" y="138" type="line"/>
      <point x="1595" y="0" type="line"/>
      <point x="911" y="0" type="line"/>
      <point x="911" y="138" type="line"/>
      <point x="1045" y="183" type="line"/>
      <point x="1002" y="335" type="line"/>
      <point x="461" y="335" type="line"/>
      <point x="416" y="187" type="line"/>
      <point x="565" y="140" type="line"/>
      <point x="565" y="0" type="line"/>
    </contour>
    <contour>
      <point x="518" y="521" type="line"/>
      <point x="948" y="521" type="line"/>
      <point x="815" y="979" type="line"/>
      <point x="742" y="1253" type="line"/>
    </contour>
  </outline>
</glyph>
<glyph name="Atilde" format="1">
  <advance width="1600"/>
  <unicode hex="00C3"/>
  <outline>
    <contour>
      <point x="459" y="1634" type="curve"/>
      <point x="372" y="1712" type="line"/>
      <point x="416" y="1830"/>
      <point x="588" y="1920"/>
      <point x="680" y="1920" type="curve" smooth="yes"/>
      <point x="826" y="1920"/>
      <point x="888" y="1820"/>
      <point x="973" y="1820" type="curve" smooth="yes"/>
      <point x="1044" y="1820"/>
      <point x="1095" y="1853"/>
      <point x="1139" y="1891" type="curve"/>
      <point x="1228" y="1794" type="line"/>
      <point x="1183" y="1676"/>
      <point x="1020" y="1603"/>
      <point x="927" y="1603" type="curve" smooth="yes"/>
      <point x="782" y="1603"/>
      <point x="713" y="1706"/>
      <point x="627" y="1706" type="curve" smooth="yes"/>
      <point x="568" y="1706"/>
      <point x="506" y="1672"/>
    </contour>
    <contour>
      <point x="5" y="0" type="line"/>
      <point x="5" y="140" type="line"/>
      <point x="138" y="180" type="line"/>
      <point x="631" y="1553" type="line"/>
      <point x="964" y="1553" type="line"/>
      <point x="1443" y="178" type="line"/>
      <point x="1595" y="138" type="line"/>
      <point x="1595" y="0" type="line"/>
      <point x="911" y="0" type="line"/>
      <point x="911" y="138" type="line"/>
      <point x="1045" y="183" type="line"/>
      <point x="1002" y="335" type="line"/>
      <point x="461" y="335" type="line"/>
      <point x="416" y="187" type="line"/>
      <point x="565" y="140" type="line"/>
      <point x="565" y="0" type="line"/>
    </contour>
    <contour>
      <point x="518" y="521" type="line"/>
      <point x="948" y="521" type="line"/>
      <point x="815" y="979" type="line"/>
      <point x="742" y="1253" type="line"/>
    </contour>
  </outline>
</glyph>
<glyph name="Ccedilla" format="1">
  <advance width="1465"/>
  <unicode hex="00C7"/>
  <outline>
    <contour>
      <point x="63" y="724" type="curve" smooth="yes"/>
      <point x="64" y="1242"/>
      <point x="490" y="1567"/>
      <point x="943" y="1567" type="curve" smooth="yes"/>
      <point x="1147" y="1567"/>
      <point x="1275" y="1522"/>
      <point x="1367" y="1503" type="curve"/>
      <point x="1347" y="1114" type="line"/>
      <point x="1137" y="1114" type="line"/>
      <point x="1064" y="1319" type="line"/>
      <point x="1038" y="1358"/>
      <point x="994" y="1382"/>
      <point x="848" y="1382" type="curve" smooth="yes"/>
      <point x="627" y="1382"/>
      <point x="458" y="1180"/>
      <point x="458" y="816" type="curve" smooth="yes"/>
      <point x="458" y="471"/>
      <point x="602" y="143"/>
      <point x="871" y="143" type="curve" smooth="yes"/>
      <point x="1038" y="143"/>
      <point x="1094" y="181"/>
      <point x="1112" y="223" type="curve" smooth="yes"/>
      <point x="1194" y="424" type="line"/>
      <point x="1368" y="424" type="line"/>
      <point x="1368" y="67" type="line"/>
      <point x="1281" y="63"/>
      <point x="1182" y="-5"/>
      <point x="960" y="-23" type="curve"/>
      <point x="959" y="-57"/>
      <point x="962" y="-101"/>
      <point x="965" y="-131" type="curve"/>
      <point x="1133" y="-148"/>
      <point x="1179" y="-262"/>
      <point x="1179" y="-324" type="curve" smooth="yes"/>
      <point x="1179" y="-457"/>
      <point x="1073" y="-524"/>
      <point x="918" y="-531" type="curve" smooth="yes"/>
      <point x="794" y="-537"/>
      <point x="697" y="-512"/>
      <point x="654" y="-501" type="curve"/>
      <point x="654" y="-352" type="line"/>
      <point x="686" y="-360"/>
      <point x="763" y="-366"/>
      <point x="780" y="-366" type="curve" smooth="yes"/>
      <point x="823" y="-366"/>
      <point x="849" y="-344"/>
      <point x="849" y="-310" type="curve" smooth="yes"/>
      <point x="849" y="-271"/>
      <point x="820" y="-253"/>
      <point x="787" y="-253" type="curve" smooth="yes"/>
      <point x="771" y="-253"/>
      <point x="733" y="-256"/>
      <point x="729" y="-257" type="curve"/>
      <point x="730" y="-205"/>
      <point x="749" y="-89"/>
      <point x="771" y="-25" type="curve"/>
      <point x="307" y="5"/>
      <point x="63" y="326"/>
    </contour>
  </outline>
</glyph>
<glyph name="Edieresis" format="1">
  <advance width="1426"/>
  <unicode hex="00CB"/>
  <outline>
    <contour>
      <point x="1002" y="1619" type="curve" smooth="yes"/>
      <point x="909" y="1619"/>
      <point x="821" y="1669"/>
      <point x="821" y="1759" type="curve" smooth="yes"/>
      <point x="821" y="1852"/>
      <point x="927" y="1920"/>
      <point x="1028" y="1920" type="curve" smooth="yes"/>
      <point x="1158" y="1920"/>
      <point x="1206" y="1860"/>
      <point x="1206" y="1782" type="curve" smooth="yes"/>
      <point x="1206" y="1682"/>
      <point x="1109" y="1619"/>
    </contour>
    <contour>
      <point x="454" y="1618" type="curve" smooth="yes"/>
      <point x="358" y="1618"/>
      <point x="277" y="1667"/>
      <point x="277" y="1756" type="curve" smooth="yes"/>
      <point x="277" y="1852"/>
      <point x="379" y="1920"/>
      <point x="482" y="1920" type="curve" smooth="yes"/>
      <point x="612" y="1920"/>
      <point x="666" y="1859"/>
      <point x="666" y="1780" type="curve" smooth="yes"/>
      <point x="666" y="1681"/>
      <point x="564" y="1618"/>
    </contour>
    <contour>
      <point x="101" y="0" type="line"/>
      <point x="101" y="140" type="line"/>
      <point x="248" y="179" type="line"/>
      <point x="248" y="1367" type="line"/>
      <point x="106" y="1389" type="line"/>
      <point x="106" y="1553" type="line"/>
      <point x="1241" y="1553" type="line"/>
      <point x="1272" y="1211" type="line"/>
      <point x="1067" y="1211" type="line"/>
      <point x="973" y="1371" type="line"/>
      <point x="603" y="1392" type="line"/>
      <point x="603" y="873" type="line"/>
      <point x="859" y="883" type="line"/>
      <point x="913" y="1032" type="line"/>
      <point x="1094" y="1032" type="line"/>
      <point x="1094" y="544" type="line"/>
      <point x="913" y="544" type="line"/>
      <point x="859" y="703" type="line"/>
      <point x="603" y="709" type="line"/>
      <point x="603" y="160" type="line"/>
      <point x="1042" y="188" type="line"/>
      <point x="1169" y="386" type="line"/>
      <point x="1377" y="349" type="line"/>
      <point x="1323" y="0" type="line"/>
    </contour>
  </outline>
</glyph>
<glyph name="Igrave" format="1">
  <advance width="848"/>
  <unicode hex="00CC"/>
  <outline>
    <contour>
      <point x="460" y="1593" type="line"/>
      <point x="415" y="1590"/>
      <point x="108" y="1643"/>
      <point x="-5" y="1728" type="curve"/>
      <point x="188" y="1920" type="line"/>
      <point x="561" y="1700" type="line"/>
    </contour>
    <contour>
      <point x="55" y="0" type="line"/>
      <point x="55" y="140" type="line"/>
      <point x="243" y="181" type="line"/>
      <point x="243" y="1365" type="line"/>
      <point x="55" y="1389" type="line"/>
      <point x="55" y="1553" type="line"/>
      <point x="782" y="1553" type="line"/>
      <point x="782" y="1389" type="line"/>
      <point x="604" y="1364" type="line"/>
      <point x="604" y="183" type="line"/>
      <point x="793" y="140" type="line"/>
      <point x="793" y="0" type="line"/>
    </contour>
  </outline>
</glyph>
<glyph name="Iacute" format="1">
  <advance width="848"/>
  <unicode hex="00CD"/>
  <outline>
    <contour>
      <point x="366" y="1593" type="curve"/>
      <point x="265" y="1700" type="line"/>
      <point x="658" y="1920" type="line"/>
      <point x="851" y="1728" type="line"/>
      <point x="738" y="1643"/>
      <point x="411" y="1590"/>
    </contour>
    <contour>
      <point x="55" y="0" type="line"/>
      <point x="55" y="140" type="line"/>
      <point x="243" y="181" type="line"/>
      <point x="243" y="1365" type="line"/>
      <point x="55" y="1389" type="line"/>
      <point x="55" y="1553" type="line"/>
      <point x="782" y="1553" type="line"/>
      <point x="782" y="1389" type="line"/>
      <point x="604" y="1364" type="line"/>
      <point x="604" y="183" type="line"/>
      <point x="793" y="140" type="line"/>
      <point x="793" y="0" type="line"/>
    </contour>
  </outline>
</glyph>
<glyph name="Idieresis" format="1">
  <advance width="848"/>
  <unicode hex="00CF"/>
  <outline>
    <contour>
      <point x="678" y="1619" type="curve" smooth="yes"/>
      <point x="585" y="1619"/>
      <point x="497" y="1669"/>
      <point x="497" y="1759" type="curve" smooth="yes"/>
      <point x="497" y="1852"/>
      <point x="603" y="1920"/>
      <point x="704" y="1920" type="curve" smooth="yes"/>
      <point x="834" y="1920"/>
      <point x="882" y="1860"/>
      <point x="882" y="1782" type="curve" smooth="yes"/>
      <point x="882" y="1682"/>
      <point x="785" y="1619"/>
    </contour>
    <contour>
      <point x="130" y="1618" type="curve" smooth="yes"/>
      <point x="34" y="1618"/>
      <point x="-47" y="1667"/>
      <point x="-47" y="1756" type="curve" smooth="yes"/>
      <point x="-47" y="1852"/>
      <point x="55" y="1920"/>
      <point x="158" y="1920" type="curve" smooth="yes"/>
      <point x="288" y="1920"/>
      <point x="342" y="1859"/>
      <point x="342" y="1780" type="curve" smooth="yes"/>
      <point x="342" y="1681"/>
      <point x="240" y="1618"/>
    </contour>
    <contour>
      <point x="55" y="0" type="line"/>
      <point x="55" y="140" type="line"/>
      <point x="243" y="181" type="line"/>
      <point x="243" y="1365" type="line"/>
      <point x="55" y="1389" type="line"/>
      <point x="55" y="1553" type="line"/>
      <point x="782" y="1553" type="line"/>
      <point x="782" y="1389" type="line"/>
      <point x="604" y="1364" type="line"/>
      <point x="604" y="183" type="line"/>
      <point x="793" y="140" type="line"/>
      <point x="793" y="0" type="line"/>
    </contour>
  </outline>
</glyph>
<glyph name="Otilde" format="1">
  <advance width="1600"/>
  <unicode hex="00D5"/>
  <outline>
    <contour>
      <point x="474" y="1634" type="curve"/>
      <point x="387" y="1712" type="line"/>
      <point x="431" y="1830"/>
      <point x="603" y="1920"/>
      <point x="695" y="1920" type="curve" smooth="yes"/>
      <point x="841" y="1920"/>
      <point x="903" y="1820"/>
      <point x="988" y="1820" type="curve" smooth="yes"/>
      <point x="1059" y="1820"/>
      <point x="1110" y="1853"/>
      <point x="1154" y="1891" type="curve"/>
      <point x="1243" y="1794" type="line"/>
      <point x="1198" y="1676"/>
      <point x="1035" y="1603"/>
      <point x="942" y="1603" type="curve" smooth="yes"/>
      <point x="797" y="1603"/>
      <point x="728" y="1706"/>
      <point x="642" y="1706" type="curve" smooth="yes"/>
      <point x="583" y="1706"/>
      <point x="521" y="1672"/>
    </contour>
    <contour>
      <point x="66" y="754" type="curve"/>
      <point x="78" y="1258"/>
      <point x="437" y="1567"/>
      <point x="818" y="1567" type="curve" smooth="yes"/>
      <point x="1254" y="1567"/>
      <point x="1543" y="1237"/>
      <point x="1534" y="790" type="curve" smooth="yes"/>
      <point x="1523" y="286"/>
      <point x="1211" y="-28"/>
      <point x="797" y="-28" type="curve" smooth="yes"/>
      <point x="343" y="-28"/>
      <point x="57" y="313"/>
    </contour>
    <contour>
      <point x="810" y="132" type="curve" smooth="yes"/>
      <point x="1070" y="132"/>
      <point x="1142" y="350"/>
      <point x="1142" y="789" type="curve" smooth="yes"/>
      <point x="1142" y="1050"/>
      <point x="1052" y="1402"/>
      <point x="809" y="1402" type="curve" smooth="yes"/>
      <point x="544" y="1402"/>
      <point x="459" y="1173"/>
      <point x="459" y="755" type="curve" smooth="yes"/>
      <point x="459" y="520"/>
      <point x="553" y="132"/>
    </contour>
  </outline>
</glyph>
<glyph name="multiply" format="1">
  <advance width="1422"/>
  <unicode hex="00D7"/>
  <outline>
    <contour>
      <point x="363" y="302" type="line"/>
      <point x="187" y="483" type="line"/>
      <point x="549" y="830" type="line"/>
      <point x="187" y="1177" type="line"/>
      <point x="362" y="1358" type="line"/>
      <point x="710" y="993" type="line"/>
      <point x="1058" y="1358" type="line"/>
      <point x="1234" y="1177" type="line"/>
      <point x="872" y="830" type="line"/>
      <point x="1234" y="483" type="line"/>
      <point x="1059" y="302" type="line"/>
      <point x="711" y="667" type="line"/>
    </contour>
  </outline>
</glyph>
<glyph name="Oslash" format="1">
  <advance width="1600"/>
  <unicode hex="00D8"/>
  <outline>
    <contour>
      <point x="378" y="-169" type="line"/>
      <point x="466" y="43" type="line"/>
      <point x="209" y="165"/>
      <point x="59" y="433"/>
      <point x="66" y="754" type="curve" smooth="yes"/>
      <point x="78" y="1258"/>
      <point x="437" y="1567"/>
      <point x="818" y="1567" type="curve" smooth="yes"/>
      <point x="892" y="1567"/>
      <point x="963" y="1557"/>
      <point x="1028" y="1539" type="curve"/>
      <point x="1081" y="1692" type="line"/>
      <point x="1209" y="1648" type="line"/>
      <point x="1153" y="1490" type="line"/>
      <point x="1395" y="1367"/>
      <point x="1540" y="1108"/>
      <point x="1534" y="790" type="curve" smooth="yes"/>
      <point x="1523" y="286"/>
      <point x="1211" y="-28"/>
      <point x="797" y="-28" type="curve" smooth="yes"/>
      <point x="723" y="-28"/>
      <point x="654" y="-19"/>
      <point x="590" y="-2" type="curve"/>
      <point x="501" y="-214" type="line"/>
    </contour>
    <contour>
      <point x="573" y="288" type="curve"/>
      <point x="944" y="1358" type="line"/>
      <point x="906" y="1386"/>
      <point x="861" y="1402"/>
      <point x="809" y="1402" type="curve" smooth="yes"/>
      <point x="544" y="1402"/>
      <point x="459" y="1173"/>
      <point x="459" y="755" type="curve" smooth="yes"/>
      <point x="459" y="615"/>
      <point x="492" y="422"/>
    </contour>
    <contour>
      <point x="674" y="175" type="line"/>
      <point x="713" y="148"/>
      <point x="758" y="132"/>
      <point x="810" y="132" type="curve" smooth="yes"/>
      <point x="1070" y="132"/>
      <point x="1142" y="350"/>
      <point x="1142" y="789" type="curve" smooth="yes"/>
      <point x="1142" y="936"/>
      <point x="1113" y="1111"/>
      <point x="1045" y="1237" type="curve"/>
    </contour>
  </outline>
</glyph>
<glyph name="Thorn" format="1">
  <advance width="1378"/>
  <unicode hex="00DE"/>
  <outline>
    <contour>
      <point x="71" y="0" type="line"/>
      <point x="71" y="140" type="line"/>
      <point x="235" y="183" type="line"/>
      <point x="235" y="1364" type="line"/>
      <point x="23" y="1389" type="line"/>
      <point x="23" y="1553" type="line"/>
      <point x="788" y="1553" type="line"/>
      <point x="788" y="1389" type="line"/>
      <point x="589" y="1364" type="line"/>
      <point x="589" y="1211" type="line"/>
      <point x="660" y="1219"/>
      <point x="740" y="1228"/>
      <point x="811" y="1228" type="curve" smooth="yes"/>
      <point x="1155" y="1228"/>
      <point x="1375" y="1120"/>
      <point x="1375" y="820" type="curve" smooth="yes"/>
      <point x="1375" y="488"/>
      <point x="1152" y="312"/>
      <point x="780" y="312" type="curve" smooth="yes"/>
      <point x="704" y="312"/>
      <point x="629" y="316"/>
      <point x="589" y="319" type="curve"/>
      <point x="589" y="182" type="line"/>
      <point x="843" y="140" type="line"/>
      <point x="843" y="0" type="line"/>
    </contour>
    <contour>
      <point x="589" y="483" type="line"/>
      <point x="615" y="478"/>
      <point x="682" y="476"/>
      <point x="736" y="476" type="curve" smooth="yes"/>
      <point x="903" y="476"/>
      <point x="1005" y="607"/>
      <point x="1005" y="797" type="curve" smooth="yes"/>
      <point x="1005" y="990"/>
      <point x="868" y="1058"/>
      <point x="701" y="1056" type="curve" smooth="yes"/>
      <point x="633" y="1055"/>
      <point x="606" y="1053"/>
      <point x="589" y="1051" type="curve"/>
    </contour>
  </outline>
</glyph>
<glyph name="atilde" format="1">
  <advance width="1226"/>
  <unicode hex="00E3"/>
  <outline>
    <contour>
      <point x="242" y="1369" type="curve"/>
      <point x="155" y="1467" type="line"/>
      <point x="199" y="1585"/>
      <point x="371" y="1675"/>
      <point x="463" y="1675" type="curve" smooth="yes"/>
      <point x="609" y="1675"/>
      <point x="671" y="1575"/>
      <point x="756" y="1575" type="curve" smooth="yes"/>
      <point x="827" y="1575"/>
      <point x="878" y="1612"/>
      <point x="922" y="1646" type="curve"/>
      <point x="1011" y="1549" type="line"/>
      <point x="966" y="1431"/>
      <point x="803" y="1338"/>
      <point x="710" y="1338" type="curve" smooth="yes"/>
      <point x="565" y="1338"/>
      <point x="496" y="1441"/>
      <point x="410" y="1441" type="curve" smooth="yes"/>
      <point x="351" y="1441"/>
      <point x="289" y="1403"/>
    </contour>
    <contour>
      <point x="71" y="394" type="curve" smooth="yes"/>
      <point x="127" y="628"/>
      <point x="526" y="702"/>
      <point x="724" y="702" type="curve"/>
      <point x="724" y="915"/>
      <point x="647" y="960"/>
      <point x="511" y="960" type="curve" smooth="yes"/>
      <point x="338" y="960"/>
      <point x="209" y="895"/>
      <point x="180" y="874" type="curve"/>
      <point x="112" y="1028" type="line"/>
      <point x="154" y="1064"/>
      <point x="335" y="1151"/>
      <point x="618" y="1151" type="curve" smooth="yes"/>
      <point x="887" y="1151"/>
      <point x="1078" y="1066"/>
      <point x="1078" y="740" type="curve" smooth="yes"/>
      <point x="1078" y="136" type="line"/>
      <point x="1209" y="136" type="line"/>
      <point x="1209" y="29" type="line"/>
      <point x="1141" y="-18"/>
      <point x="1027" y="-28"/>
      <point x="950" y="-28" type="curve" smooth="yes"/>
      <point x="899" y="-28"/>
      <point x="775" y="-11"/>
      <point x="770" y="86" type="curve"/>
      <point x="701" y="21"/>
      <point x="608" y="-28"/>
      <point x="480" y="-28" type="curve" smooth="yes"/>
      <point x="131" y="-28"/>
      <point x="19" y="177"/>
    </contour>
    <contour>
      <point x="417" y="335" type="curve" smooth="yes"/>
      <point x="417" y="206"/>
      <point x="492" y="147"/>
      <point x="633" y="167" type="curve" smooth="yes"/>
      <point x="669" y="172"/>
      <point x="698" y="187"/>
      <point x="723" y="206" type="curve"/>
      <point x="723" y="320"/>
      <point x="724" y="435"/>
      <point x="724" y="549" type="curve"/>
      <point x="599" y="549"/>
      <point x="417" y="511"/>
    </contour>
  </outline>
</glyph>
<glyph name="adieresis" format="1">
  <advance width="1226"/>
  <unicode hex="00E4"/>
  <outline>
    <contour>
      <point x="834" y="1349" type="curve" smooth="yes"/>
      <point x="741" y="1349"/>
      <point x="653" y="1399"/>
      <point x="653" y="1489" type="curve" smooth="yes"/>
      <point x="653" y="1582"/>
      <point x="759" y="1650"/>
      <point x="860" y="1650" type="curve" smooth="yes"/>
      <point x="990" y="1650"/>
      <point x="1038" y="1590"/>
      <point x="1038" y="1512" type="curve" smooth="yes"/>
      <point x="1038" y="1412"/>
      <point x="941" y="1349"/>
    </contour>
    <contour>
      <point x="306" y="1348" type="curve" smooth="yes"/>
      <point x="210" y="1348"/>
      <point x="129" y="1397"/>
      <point x="129" y="1486" type="curve" smooth="yes"/>
      <point x="129" y="1582"/>
      <point x="231" y="1650"/>
      <point x="334" y="1650" type="curve" smooth="yes"/>
      <point x="464" y="1650"/>
      <point x="518" y="1589"/>
      <point x="518" y="1510" type="curve" smooth="yes"/>
      <point x="518" y="1411"/>
      <point x="416" y="1348"/>
    </contour>
    <contour>
      <point x="71" y="394" type="curve" smooth="yes"/>
      <point x="127" y="628"/>
      <point x="526" y="702"/>
      <point x="724" y="702" type="curve"/>
      <point x="724" y="915"/>
      <point x="647" y="960"/>
      <point x="511" y="960" type="curve" smooth="yes"/>
      <point x="338" y="960"/>
      <point x="209" y="895"/>
      <point x="180" y="874" type="curve"/>
      <point x="112" y="1028" type="line"/>
      <point x="154" y="1064"/>
      <point x="335" y="1151"/>
      <point x="618" y="1151" type="curve" smooth="yes"/>
      <point x="887" y="1151"/>
      <point x="1078" y="1066"/>
      <point x="1078" y="740" type="curve" smooth="yes"/>
      <point x="1078" y="136" type="line"/>
      <point x="1209" y="136" type="line"/>
      <point x="1209" y="29" type="line"/>
      <point x="1141" y="-18"/>
      <point x="1027" y="-28"/>
      <point x="950" y="-28" type="curve" smooth="yes"/>
      <point x="899" y="-28"/>
      <point x="775" y="-11"/>
      <point x="770" y="86" type="curve"/>
      <point x="701" y="21"/>
      <point x="608" y="-28"/>
      <point x="480" y="-28" type="curve" smooth="yes"/>
      <point x="131" y="-28"/>
      <point x="19" y="177"/>
    </contour>
    <contour>
      <point x="417" y="335" type="curve" smooth="yes"/>
      <point x="417" y="206"/>
      <point x="492" y="147"/>
      <point x="633" y="167" type="curve" smooth="yes"/>
      <point x="669" y="172"/>
      <point x="698" y="187"/>
      <point x="723" y="206" type="curve"/>
      <point x="723" y="320"/>
      <point x="724" y="435"/>
      <point x="724" y="549" type="curve"/>
      <point x="599" y="549"/>
      <point x="417" y="511"/>
    </contour>
  </outline>
</glyph>
<glyph name="edieresis" format="1">
  <advance width="1239"/>
  <unicode hex="00EB"/>
  <outline>
    <contour>
      <point x="916" y="1349" type="curve" smooth="yes"/>
      <point x="823" y="1349"/>
      <point x="735" y="1399"/>
      <point x="735" y="1489" type="curve" smooth="yes"/>
      <point x="735" y="1582"/>
      <point x="841" y="1650"/>
      <point x="942" y="1650" type="curve" smooth="yes"/>
      <point x="1072" y="1650"/>
      <point x="1120" y="1590"/>
      <point x="1120" y="1512" type="curve" smooth="yes"/>
      <point x="1120" y="1412"/>
      <point x="1023" y="1349"/>
    </contour>
    <contour>
      <point x="388" y="1348" type="curve" smooth="yes"/>
      <point x="292" y="1348"/>
      <point x="211" y="1397"/>
      <point x="211" y="1486" type="curve" smooth="yes"/>
      <point x="211" y="1582"/>
      <point x="313" y="1650"/>
      <point x="416" y="1650" type="curve" smooth="yes"/>
      <point x="546" y="1650"/>
      <point x="600" y="1589"/>
      <point x="600" y="1510" type="curve" smooth="yes"/>
      <point x="600" y="1411"/>
      <point x="498" y="1348"/>
    </contour>
    <contour>
      <point x="73" y="531" type="curve" smooth="yes"/>
      <point x="73" y="873"/>
      <point x="303" y="1151"/>
      <point x="687" y="1151" type="curve" smooth="yes"/>
      <point x="1011" y="1151"/>
      <point x="1144" y="977"/>
      <point x="1153" y="733" type="curve" smooth="yes"/>
      <point x="1156" y="650"/>
      <point x="1147" y="586"/>
      <point x="1139" y="530" type="curve"/>
      <point x="442" y="530" type="line"/>
      <point x="460" y="295"/>
      <point x="563" y="173"/>
      <point x="759" y="173" type="curve" smooth="yes"/>
      <point x="856" y="173"/>
      <point x="970" y="192"/>
      <point x="1078" y="240" type="curve"/>
      <point x="1131" y="115" type="line"/>
      <point x="1029" y="30"/>
      <point x="834" y="-32"/>
      <point x="640" y="-28" type="curve" smooth="yes"/>
      <point x="277" y="-21"/>
      <point x="73" y="180"/>
    </contour>
    <contour>
      <point x="443" y="691" type="curve"/>
      <point x="809" y="691" type="line"/>
      <point x="817" y="789"/>
      <point x="834" y="928"/>
      <point x="753" y="985" type="curve" smooth="yes"/>
      <point x="729" y="1002"/>
      <point x="698" y="1011"/>
      <point x="655" y="1011" type="curve" smooth="yes"/>
      <point x="500" y="1011"/>
      <point x="453" y="845"/>
    </contour>
  </outline>
</glyph>
<glyph name="icircumflex" format="1">
  <advance width="748"/>
  <unicode hex="00EE"/>
  <outline>
    <contour>
      <point x="124" y="1335" type="line"/>
      <point x="-7" y="1409" type="line"/>
      <point x="264" y="1775" type="line"/>
      <point x="517" y="1775" type="line"/>
      <point x="794" y="1410" type="line"/>
      <point x="649" y="1336" type="line"/>
      <point x="390" y="1542" type="line"/>
    </contour>
    <contour>
      <point x="79" y="0" type="line"/>
      <point x="79" y="136" type="line"/>
      <point x="214" y="164" type="line"/>
      <point x="214" y="786" type="line"/>
      <point x="86" y="930" type="line"/>
      <point x="86" y="1023" type="line"/>
      <point x="482" y="1157" type="line"/>
      <point x="567" y="1132" type="line"/>
      <point x="567" y="162" type="line"/>
      <point x="708" y="136" type="line"/>
      <point x="708" y="0" type="line"/>
    </contour>
  </outline>
</glyph>
<glyph name="idieresis" format="1">
  <advance width="748"/>
  <unicode hex="00EF"/>
  <outline>
    <contour>
      <point x="640" y="1349" type="curve" smooth="yes"/>
      <point x="547" y="1349"/>
      <point x="459" y="1399"/>
      <point x="459" y="1489" type="curve" smooth="yes"/>
      <point x="459" y="1582"/>
      <point x="565" y="1650"/>
      <point x="666" y="1650" type="curve" smooth="yes"/>
      <point x="796" y="1650"/>
      <point x="844" y="1590"/>
      <point x="844" y="1512" type="curve" smooth="yes"/>
      <point x="844" y="1412"/>
      <point x="747" y="1349"/>
    </contour>
    <contour>
      <point x="112" y="1348" type="curve" smooth="yes"/>
      <point x="16" y="1348"/>
      <point x="-65" y="1397"/>
      <point x="-65" y="1486" type="curve" smooth="yes"/>
      <point x="-65" y="1582"/>
      <point x="37" y="1650"/>
      <point x="140" y="1650" type="curve" smooth="yes"/>
      <point x="270" y="1650"/>
      <point x="324" y="1589"/>
      <point x="324" y="1510" type="curve" smooth="yes"/>
      <point x="324" y="1411"/>
      <point x="222" y="1348"/>
    </contour>
    <contour>
      <point x="79" y="0" type="line"/>
      <point x="79" y="136" type="line"/>
      <point x="214" y="164" type="line"/>
      <point x="214" y="786" type="line"/>
      <point x="86" y="930" type="line"/>
      <point x="86" y="1023" type="line"/>
      <point x="482" y="1157" type="line"/>
      <point x="567" y="1132" type="line"/>
      <point x="567" y="162" type="line"/>
      <point x="708" y="136" type="line"/>
      <point x="708" y="0" type="line"/>
    </contour>
  </outline>
</glyph>
<glyph name="eth" format="1">
  <advance width="1323"/>
  <unicode hex="00F0"/>
  <outline>
    <contour>
      <point x="64" y="502" type="curve" smooth="yes"/>
      <point x="64" y="896"/>
      <point x="355" y="1069"/>
      <point x="635" y="1069" type="curve" smooth="yes"/>
      <point x="767" y="1069"/>
      <point x="871" y="1021"/>
      <point x="932" y="962" type="curve"/>
      <point x="904" y="1116"/>
      <point x="818" y="1253"/>
      <point x="695" y="1357" type="curve"/>
      <point x="530" y="1209" type="line"/>
      <point x="427" y="1295" type="line"/>
      <point x="582" y="1437" type="line"/>
      <point x="499" y="1486"/>
      <point x="405" y="1522"/>
      <point x="305" y="1542" type="curve"/>
      <point x="331" y="1691" type="line"/>
      <point x="453" y="1679"/>
      <point x="589" y="1639"/>
      <point x="717" y="1568" type="curve"/>
      <point x="788" y="1634"/>
      <point x="883" y="1722"/>
      <point x="883" y="1722" type="curve"/>
      <point x="993" y="1626" type="line"/>
      <point x="993" y="1626"/>
      <point x="910" y="1553"/>
      <point x="838" y="1490" type="curve"/>
      <point x="1062" y="1323"/>
      <point x="1239" y="1048"/>
      <point x="1239" y="652" type="curve" smooth="yes"/>
      <point x="1239" y="269"/>
      <point x="1101" y="-27"/>
      <point x="626" y="-27" type="curve" smooth="yes"/>
      <point x="299" y="-27"/>
      <point x="64" y="189"/>
    </contour>
    <contour>
      <point x="424" y="519" type="curve" smooth="yes"/>
      <point x="424" y="296"/>
      <point x="548" y="128"/>
      <point x="660" y="128" type="curve" smooth="yes"/>
      <point x="785" y="128"/>
      <point x="902" y="229"/>
      <point x="902" y="571" type="curve" smooth="yes"/>
      <point x="902" y="604"/>
      <point x="902" y="634"/>
      <point x="893" y="678" type="curve" smooth="yes"/>
      <point x="874" y="771"/>
      <point x="780" y="910"/>
      <point x="652" y="910" type="curve" smooth="yes"/>
      <point x="479" y="910"/>
      <point x="424" y="776"/>
    </contour>
  </outline>
</glyph>
<glyph name="odieresis" format="1">
  <advance width="1335"/>
  <unicode hex="00F6"/>
  <outline>
    <contour>
      <point x="921" y="1349" type="curve" smooth="yes"/>
      <point x="828" y="1349"/>
      <point x="740" y="1399"/>
      <point x="740" y="1489" type="curve" smooth="yes"/>
      <point x="740" y="1582"/>
      <point x="846" y="1650"/>
      <point x="947" y="1650" type="curve" smooth="yes"/>
      <point x="1077" y="1650"/>
      <point x="1125" y="1590"/>
      <point x="1125" y="1512" type="curve" smooth="yes"/>
      <point x="1125" y="1412"/>
      <point x="1028" y="1349"/>
    </contour>
    <contour>
      <point x="393" y="1348" type="curve" smooth="yes"/>
      <point x="297" y="1348"/>
      <point x="216" y="1397"/>
      <point x="216" y="1486" type="curve" smooth="yes"/>
      <point x="216" y="1582"/>
      <point x="318" y="1650"/>
      <point x="421" y="1650" type="curve" smooth="yes"/>
      <point x="551" y="1650"/>
      <point x="605" y="1589"/>
      <point x="605" y="1510" type="curve" smooth="yes"/>
      <point x="605" y="1411"/>
      <point x="503" y="1348"/>
    </contour>
    <contour>
      <point x="74" y="561" type="curve" smooth="yes"/>
      <point x="79" y="971"/>
      <point x="371" y="1148"/>
      <point x="686" y="1152" type="curve" smooth="yes"/>
      <point x="1043" y="1156"/>
      <point x="1262" y="963"/>
      <point x="1262" y="591" type="curve" smooth="yes"/>
      <point x="1262" y="170"/>
      <point x="975" y="-23"/>
      <point x="658" y="-24" type="curve" smooth="yes"/>
      <point x="232" y="-25"/>
      <point x="70" y="240"/>
    </contour>
    <contour>
      <point x="669" y="122" type="curve" smooth="yes"/>
      <point x="855" y="122"/>
      <point x="886" y="363"/>
      <point x="886" y="574" type="curve" smooth="yes"/>
      <point x="886" y="764"/>
      <point x="856" y="1006"/>
      <point x="677" y="1006" type="curve" smooth="yes"/>
      <point x="491" y="1006"/>
      <point x="450" y="785"/>
      <point x="450" y="589" type="curve" smooth="yes"/>
      <point x="450" y="418"/>
      <point x="490" y="122"/>
    </contour>
  </outline>
</glyph>
<glyph name="oslash" format="1">
  <advance width="1335"/>
  <unicode hex="00F8"/>
  <outline>
    <contour>
      <point x="372" y="-178" type="line"/>
      <point x="429" y="7" type="line"/>
      <point x="173" y="86"/>
      <point x="71" y="305"/>
      <point x="74" y="561" type="curve" smooth="yes"/>
      <point x="79" y="971"/>
      <point x="371" y="1148"/>
      <point x="686" y="1152" type="curve" smooth="yes"/>
      <point x="723" y="1152"/>
      <point x="759" y="1151"/>
      <point x="793" y="1147" type="curve"/>
      <point x="843" y="1311" type="line"/>
      <point x="953" y="1285" type="line"/>
      <point x="904" y="1125" type="line"/>
      <point x="1130" y="1061"/>
      <point x="1262" y="879"/>
      <point x="1262" y="591" type="curve" smooth="yes"/>
      <point x="1262" y="170"/>
      <point x="975" y="-23"/>
      <point x="658" y="-24" type="curve" smooth="yes"/>
      <point x="617" y="-24"/>
      <point x="578" y="-21"/>
      <point x="542" y="-17" type="curve"/>
      <point x="485" y="-205" type="line"/>
    </contour>
    <contour>
      <point x="511" y="245" type="curve"/>
      <point x="741" y="993" type="line"/>
      <point x="722" y="1001"/>
      <point x="701" y="1006"/>
      <point x="677" y="1006" type="curve" smooth="yes"/>
      <point x="491" y="1006"/>
      <point x="450" y="785"/>
      <point x="450" y="589" type="curve" smooth="yes"/>
      <point x="450" y="489"/>
      <point x="464" y="346"/>
    </contour>
    <contour>
      <point x="599" y="139" type="line"/>
      <point x="620" y="128"/>
      <point x="643" y="122"/>
      <point x="669" y="122" type="curve" smooth="yes"/>
      <point x="855" y="122"/>
      <point x="886" y="363"/>
      <point x="886" y="574" type="curve" smooth="yes"/>
      <point x="886" y="685"/>
      <point x="876" y="814"/>
      <point x="831" y="902" type="curve"/>
    </contour>
  </outline>
</glyph>
<glyph name="yacute" format="1">
  <advance width="1233"/>
  <unicode hex="00FD"/>
  <outline>
    <contour>
      <point x="619" y="1336" type="curve"/>
      <point x="531" y="1425" type="line"/>
      <point x="846" y="1851" type="line"/>
      <point x="1101" y="1656" type="line"/>
      <point x="1004" y="1505"/>
      <point x="790" y="1390"/>
    </contour>
    <contour>
      <point x="147" y="-261" type="line"/>
      <point x="181" y="-268"/>
      <point x="229" y="-279"/>
      <point x="295" y="-277" type="curve" smooth="yes"/>
      <point x="358" y="-275"/>
      <point x="483" y="-247"/>
      <point x="542" y="0" type="curve"/>
      <point x="486" y="0" type="line"/>
      <point x="92" y="914" type="line"/>
      <point x="5" y="940" type="line"/>
      <point x="5" y="1119" type="line"/>
      <point x="590" y="1119" type="line"/>
      <point x="590" y="940" type="line"/>
      <point x="476" y="915" type="line"/>
      <point x="673" y="381" type="line"/>
      <point x="689" y="278" type="line"/>
      <point x="718" y="381" type="line"/>
      <point x="881" y="917" type="line"/>
      <point x="744" y="940" type="line"/>
      <point x="744" y="1119" type="line"/>
      <point x="1252" y="1119" type="line"/>
      <point x="1252" y="940" type="line"/>
      <point x="1152" y="919" type="line"/>
      <point x="855" y="167"/>
      <point x="790" y="22"/>
      <point x="761" y="-56" type="curve" smooth="yes"/>
      <point x="644" y="-368"/>
      <point x="529" y="-542"/>
      <point x="306" y="-542" type="curve" smooth="yes"/>
      <point x="278" y="-542"/>
      <point x="245" y="-541"/>
      <point x="215" y="-539" type="curve" smooth="yes"/>
      <point x="185" y="-537"/>
      <point x="158" y="-533"/>
      <point x="145" y="-527" type="curve"/>
    </contour>
  </outline>
</glyph>
<glyph name="aogonek" format="1">
  <advance width="1226"/>
  <unicode hex="0105"/>
  <outline>
    <contour>
      <point x="71" y="394" type="curve" smooth="yes"/>
      <point x="127" y="628"/>
      <point x="526" y="702"/>
      <point x="724" y="702" type="curve"/>
      <point x="724" y="915"/>
      <point x="647" y="960"/>
      <point x="511" y="960" type="curve" smooth="yes"/>
      <point x="338" y="960"/>
      <point x="209" y="895"/>
      <point x="180" y="874" type="curve"/>
      <point x="112" y="1028" type="line"/>
      <point x="154" y="1064"/>
      <point x="335" y="1151"/>
      <point x="618" y="1151" type="curve" smooth="yes"/>
      <point x="887" y="1151"/>
      <point x="1078" y="1066"/>
      <point x="1078" y="740" type="curve" smooth="yes"/>
      <point x="1078" y="136" type="line"/>
      <point x="1209" y="136" type="line"/>
      <point x="1209" y="29" type="line"/>
      <point x="1197" y="21"/>
      <point x="1184" y="14"/>
      <point x="1171" y="8" type="curve"/>
      <point x="1066" y="-61"/>
      <point x="958" y="-142"/>
      <point x="970" y="-248" type="curve" smooth="yes"/>
      <point x="978" y="-324"/>
      <point x="1082" y="-328"/>
      <point x="1203" y="-304" type="curve"/>
      <point x="1203" y="-451" type="line"/>
      <point x="1052" y="-561"/>
      <point x="708" y="-543"/>
      <point x="691" y="-345" type="curve" smooth="yes"/>
      <point x="677" y="-186"/>
      <point x="806" y="-83"/>
      <point x="899" y="-23" type="curve"/>
      <point x="843" y="-14"/>
      <point x="774" y="14"/>
      <point x="770" y="86" type="curve"/>
      <point x="701" y="21"/>
      <point x="608" y="-28"/>
      <point x="480" y="-28" type="curve" smooth="yes"/>
      <point x="131" y="-28"/>
      <point x="19" y="177"/>
    </contour>
    <contour>
      <point x="417" y="335" type="curve" smooth="yes"/>
      <point x="417" y="206"/>
      <point x="492" y="147"/>
      <point x="633" y="167" type="curve" smooth="yes"/>
      <point x="669" y="172"/>
      <point x="698" y="187"/>
      <point x="723" y="206" type="curve"/>
      <point x="723" y="320"/>
      <point x="724" y="435"/>
      <point x="724" y="549" type="curve"/>
      <point x="599" y="549"/>
      <point x="417" y="511"/>
    </contour>
  </outline>
</glyph>
<glyph name="eogonek" format="1">
  <advance width="1239"/>
  <unicode hex="0119"/>
  <outline>
    <contour>
      <point x="73" y="531" type="curve" smooth="yes"/>
      <point x="73" y="873"/>
      <point x="303" y="1151"/>
      <point x="687" y="1151" type="curve" smooth="yes"/>
      <point x="1011" y="1151"/>
      <point x="1144" y="977"/>
      <point x="1153" y="733" type="curve" smooth="yes"/>
      <point x="1156" y="650"/>
      <point x="1147" y="586"/>
      <point x="1139" y="530" type="curve"/>
      <point x="442" y="530" type="line"/>
      <point x="460" y="295"/>
      <point x="563" y="173"/>
      <point x="759" y="173" type="curve" smooth="yes"/>
      <point x="856" y="173"/>
      <point x="970" y="192"/>
      <point x="1078" y="240" type="curve"/>
      <point x="1131" y="115" type="line"/>
      <point x="1130" y="114"/>
      <point x="1129" y="114"/>
      <point x="1129" y="113" type="curve" smooth="yes"/>
      <point x="1131" y="114" type="line"/>
      <point x="967" y="-1"/>
      <point x="881" y="-130"/>
      <point x="881" y="-217" type="curve" smooth="yes"/>
      <point x="881" y="-313"/>
      <point x="1052" y="-332"/>
      <point x="1173" y="-304" type="curve"/>
      <point x="1173" y="-441" type="line"/>
      <point x="1042" y="-531"/>
      <point x="624" y="-574"/>
      <point x="624" y="-340" type="curve" smooth="yes"/>
      <point x="624" y="-188"/>
      <point x="724" y="-88"/>
      <point x="844" y="-9" type="curve"/>
      <point x="779" y="-22"/>
      <point x="709" y="-29"/>
      <point x="640" y="-28" type="curve" smooth="yes"/>
      <point x="277" y="-21"/>
      <point x="73" y="180"/>
    </contour>
    <contour>
      <point x="443" y="691" type="curve"/>
      <point x="809" y="691" type="line"/>
      <point x="817" y="789"/>
      <point x="834" y="928"/>
      <point x="753" y="985" type="curve" smooth="yes"/>
      <point x="729" y="1002"/>
      <point x="698" y="1011"/>
      <point x="655" y="1011" type="curve" smooth="yes"/>
      <point x="500" y="1011"/>
      <point x="453" y="845"/>
    </contour>
  </outline>
</glyph>
<glyph name="Itilde" format="1">
  <advance width="848"/>
  <unicode hex="0128"/>
  <outline>
    <contour>
      <point x="77" y="1634" type="curve"/>
      <point x="-10" y="1712" type="line"/>
      <point x="34" y="1830"/>
      <point x="206" y="1920"/>
      <point x="298" y="1920" type="curve" smooth="yes"/>
      <point x="444" y="1920"/>
      <point x="506" y="1820"/>
      <point x="591" y="1820" type="curve" smooth="yes"/>
      <point x="662" y="1820"/>
      <point x="713" y="1853"/>
      <point x="757" y="1891" type="curve"/>
      <point x="846" y="1794" type="line"/>
      <point x="801" y="1676"/>
      <point x="638" y="1603"/>
      <point x="545" y="1603" type="curve" smooth="yes"/>
      <point x="400" y="1603"/>
      <point x="331" y="1706"/>
      <point x="245" y="1706" type="curve" smooth="yes"/>
      <point x="186" y="1706"/>
      <point x="124" y="1672"/>
    </contour>
    <contour>
      <point x="55" y="0" type="line"/>
      <point x="55" y="140" type="line"/>
      <point x="243" y="181" type="line"/>
      <point x="243" y="1365" type="line"/>
      <point x="55" y="1389" type="line"/>
      <point x="55" y="1553" type="line"/>
      <point x="782" y="1553" type="line"/>
      <point x="782" y="1389" type="line"/>
      <point x="604" y="1364" type="line"/>
      <point x="604" y="183" type="line"/>
      <point x="793" y="140" type="line"/>
      <point x="793" y="0" type="line"/>
    </contour>
  </outline>
</glyph>
<glyph name="itilde" format="1">
  <advance width="748"/>
  <unicode hex="0129"/>
  <outline>
    <contour>
      <point x="48" y="1369" type="curve"/>
      <point x="-39" y="1467" type="line"/>
      <point x="5" y="1585"/>
      <point x="177" y="1675"/>
      <point x="269" y="1675" type="curve" smooth="yes"/>
      <point x="415" y="1675"/>
      <point x="477" y="1575"/>
      <point x="562" y="1575" type="curve" smooth="yes"/>
      <point x="633" y="1575"/>
      <point x="684" y="1612"/>
      <point x="728" y="1646" type="curve"/>
      <point x="817" y="1549" type="line"/>
      <point x="772" y="1431"/>
      <point x="609" y="1338"/>
      <point x="516" y="1338" type="curve" smooth="yes"/>
      <point x="371" y="1338"/>
      <point x="302" y="1441"/>
      <point x="216" y="1441" type="curve" smooth="yes"/>
      <point x="157" y="1441"/>
      <point x="95" y="1403"/>
    </contour>
    <contour>
      <point x="79" y="0" type="line"/>
      <point x="79" y="136" type="line"/>
      <point x="214" y="164" type="line"/>
      <point x="214" y="786" type="line"/>
      <point x="86" y="930" type="line"/>
      <point x="86" y="1023" type="line"/>
      <point x="482" y="1157" type="line"/>
      <point x="567" y="1132" type="line"/>
      <point x="567" y="162" type="line"/>
      <point x="708" y="136" type="line"/>
      <point x="708" y="0" type="line"/>
    </contour>
  </outline>
</glyph>
<glyph name="ij" format="1">
  <advance width="1432"/>
  <unicode hex="0133"/>
  <outline>
    <contour>
      <point x="1067" y="1325" type="curve" smooth="yes"/>
      <point x="962" y="1325"/>
      <point x="862" y="1396"/>
      <point x="862" y="1513" type="curve" smooth="yes"/>
      <point x="862" y="1640"/>
      <point x="989" y="1737"/>
      <point x="1106" y="1737" type="curve" smooth="yes"/>
      <point x="1249" y="1737"/>
      <point x="1312" y="1651"/>
      <point x="1312" y="1548" type="curve" smooth="yes"/>
      <point x="1312" y="1412"/>
      <point x="1191" y="1325"/>
    </contour>
    <contour>
      <point x="359" y="1325" type="curve" smooth="yes"/>
      <point x="254" y="1325"/>
      <point x="153" y="1396"/>
      <point x="153" y="1513" type="curve" smooth="yes"/>
      <point x="153" y="1641"/>
      <point x="281" y="1737"/>
      <point x="398" y="1737" type="curve" smooth="yes"/>
      <point x="541" y="1737"/>
      <point x="603" y="1651"/>
      <point x="603" y="1548" type="curve" smooth="yes"/>
      <point x="603" y="1412"/>
      <point x="483" y="1325"/>
    </contour>
    <contour>
      <point x="708" y="-318" type="line"/>
      <point x="731" y="-325"/>
      <point x="804" y="-329"/>
      <point x="829" y="-329" type="curve" smooth="yes"/>
      <point x="930" y="-329"/>
      <point x="940" y="-223"/>
      <point x="940" y="-6" type="curve" smooth="yes"/>
      <point x="940" y="786" type="line"/>
      <point x="830" y="933" type="line"/>
      <point x="830" y="1021" type="line"/>
      <point x="1213" y="1151" type="line"/>
      <point x="1294" y="1124" type="line"/>
      <point x="1294" y="-48" type="line" smooth="yes"/>
      <point x="1294" y="-360"/>
      <point x="1151" y="-542"/>
      <point x="915" y="-542" type="curve" smooth="yes"/>
      <point x="822" y="-542"/>
      <point x="719" y="-515"/>
      <point x="708" y="-506" type="curve"/>
    </contour>
    <contour>
      <point x="79" y="0" type="line"/>
      <point x="79" y="136" type="line"/>
      <point x="214" y="164" type="line"/>
      <point x="214" y="786" type="line"/>
      <point x="86" y="930" type="line"/>
      <point x="86" y="1023" type="line"/>
      <point x="482" y="1151" type="line"/>
      <point x="567" y="1126" type="line"/>
      <point x="567" y="162" type="line"/>
      <point x="711" y="136" type="line"/>
      <point x="711" y="0" type="line"/>
    </contour>
  </outline>
</glyph>
<glyph name="Ldotaccent" format="1">
  <advance width="1427"/>
  <unicode hex="013F"/>
  <outline>
    <contour>
      <point x="93" y="0" type="line"/>
      <point x="93" y="140" type="line"/>
      <point x="235" y="178" type="line"/>
      <point x="235" y="1347" type="line"/>
      <point x="98" y="1368" type="line"/>
      <point x="98" y="1553" type="line"/>
      <point x="776" y="1553" type="line"/>
      <point x="776" y="1368" type="line"/>
      <point x="594" y="1346" type="line"/>
      <point x="594" y="163" type="line"/>
      <point x="954" y="202" type="line"/>
      <point x="1121" y="439" type="line"/>
      <point x="1273" y="383" type="line"/>
      <point x="1204" y="0" type="line"/>
    </contour>
    <contour>
      <point x="996" y="827" type="curve" smooth="yes"/>
      <point x="996" y="956"/>
      <point x="1125" y="1054"/>
      <point x="1234" y="1054" type="curve" smooth="yes"/>
      <point x="1375" y="1054"/>
      <point x="1441" y="967"/>
      <point x="1441" y="860" type="curve" smooth="yes"/>
      <point x="1441" y="724"/>
      <point x="1317" y="641"/>
      <point x="1199" y="641" type="curve" smooth="yes"/>
      <point x="1098" y="641"/>
      <point x="996" y="708"/>
    </contour>
  </outline>
</glyph>
<glyph name="Lslash" format="1">
  <advance width="1288"/>
  <unicode hex="0141"/>
  <outline>
    <contour>
      <point x="93" y="0" type="line"/>
      <point x="93" y="140" type="line"/>
      <point x="235" y="178" type="line"/>
      <point x="235" y="541" type="line"/>
      <point x="67" y="474" type="line"/>
      <point x="67" y="474"/>
      <point x="69" y="714"/>
      <point x="68" y="716" type="curve" smooth="yes"/>
      <point x="67" y="716"/>
      <point x="136" y="747"/>
      <point x="235" y="789" type="curve"/>
      <point x="235" y="1347" type="line"/>
      <point x="98" y="1368" type="line"/>
      <point x="98" y="1553" type="line"/>
      <point x="776" y="1553" type="line"/>
      <point x="776" y="1368" type="line"/>
      <point x="594" y="1346" type="line"/>
      <point x="594" y="944" type="line"/>
      <point x="808" y="1037"/>
      <point x="1007" y="1122"/>
      <point x="1007" y="1122" type="curve"/>
      <point x="1007" y="850" type="line"/>
      <point x="594" y="684" type="line"/>
      <point x="594" y="163" type="line"/>
      <point x="954" y="202" type="line"/>
      <point x="1121" y="439" type="line"/>
      <point x="1273" y="383" type="line"/>
      <point x="1204" y="0" type="line"/>
    </contour>
  </outline>
</glyph>
<glyph name="nacute" format="1">
  <advance width="1466"/>
  <unicode hex="0144"/>
  <outline>
    <contour>
      <point x="716" y="1336" type="curve"/>
      <point x="628" y="1425" type="line"/>
      <point x="943" y="1851" type="line"/>
      <point x="1198" y="1656" type="line"/>
      <point x="1101" y="1505"/>
      <point x="887" y="1390"/>
    </contour>
    <contour>
      <point x="97" y="0" type="line"/>
      <point x="97" y="136" type="line"/>
      <point x="222" y="161" type="line"/>
      <point x="222" y="819" type="line"/>
      <point x="86" y="915" type="line"/>
      <point x="86" y="1041" type="line"/>
      <point x="457" y="1151" type="line"/>
      <point x="532" y="1132" type="line"/>
      <point x="532" y="984" type="line"/>
      <point x="637" y="1085"/>
      <point x="798" y="1151"/>
      <point x="951" y="1151" type="curve" smooth="yes"/>
      <point x="1206" y="1150"/>
      <point x="1279" y="985"/>
      <point x="1279" y="700" type="curve" smooth="yes"/>
      <point x="1279" y="162" type="line"/>
      <point x="1420" y="136" type="line"/>
      <point x="1420" y="0" type="line"/>
      <point x="782" y="0" type="line"/>
      <point x="782" y="136" type="line"/>
      <point x="925" y="164" type="line"/>
      <point x="925" y="655" type="line" smooth="yes"/>
      <point x="925" y="869"/>
      <point x="895" y="920"/>
      <point x="728" y="920" type="curve" smooth="yes"/>
      <point x="703" y="920"/>
      <point x="609" y="902"/>
      <point x="576" y="874" type="curve"/>
      <point x="576" y="163" type="line"/>
      <point x="699" y="136" type="line"/>
      <point x="699" y="0" type="line"/>
    </contour>
  </outline>
</glyph>
<glyph name="OE" format="1">
  <advance width="2222"/>
  <unicode hex="0152"/>
  <outline>
    <contour>
      <point x="66" y="754" type="curve"/>
      <point x="78" y="1258"/>
      <point x="437" y="1567"/>
      <point x="818" y="1567" type="curve" smooth="yes"/>
      <point x="870" y="1567"/>
      <point x="921" y="1562"/>
      <point x="969" y="1553" type="curve"/>
      <point x="2024" y="1553" type="line"/>
      <point x="2055" y="1211" type="line"/>
      <point x="1880" y="1211" type="line"/>
      <point x="1786" y="1371" type="line"/>
      <point x="1416" y="1392" type="line"/>
      <point x="1416" y="865" type="line"/>
      <point x="1677" y="875" type="line"/>
      <point x="1721" y="1021" type="line"/>
      <point x="1882" y="1021" type="line"/>
      <point x="1882" y="533" type="line"/>
      <point x="1721" y="533" type="line"/>
      <point x="1677" y="692" type="line"/>
      <point x="1416" y="698" type="line"/>
      <point x="1416" y="160" type="line"/>
      <point x="1873" y="188" type="line"/>
      <point x="2000" y="386" type="line"/>
      <point x="2178" y="349" type="line"/>
      <point x="2124" y="0" type="line"/>
      <point x="1002" y="0" type="line"/>
      <point x="937" y="-18"/>
      <point x="868" y="-28"/>
      <point x="797" y="-28" type="curve" smooth="yes"/>
      <point x="343" y="-28"/>
      <point x="57" y="313"/>
    </contour>
    <contour>
      <point x="810" y="132" type="curve" smooth="yes"/>
      <point x="930" y="132"/>
      <point x="1009" y="178"/>
      <point x="1061" y="271" type="curve"/>
      <point x="1061" y="1206" type="line"/>
      <point x="1008" y="1320"/>
      <point x="926" y="1402"/>
      <point x="809" y="1402" type="curve" smooth="yes"/>
      <point x="544" y="1402"/>
      <point x="459" y="1173"/>
      <point x="459" y="755" type="curve" smooth="yes"/>
      <point x="459" y="520"/>
      <point x="553" y="132"/>
    </contour>
  </outline>
</glyph>
<glyph name="oe" format="1">
  <advance width="2168"/>
  <unicode hex="0153"/>
  <outline>
    <contour>
      <point x="74" y="561" type="curve" smooth="yes"/>
      <point x="79" y="971"/>
      <point x="371" y="1148"/>
      <point x="686" y="1152" type="curve" smooth="yes"/>
      <point x="899" y="1154"/>
      <point x="1063" y="1086"/>
      <point x="1161" y="951" type="curve"/>
      <point x="1266" y="1074"/>
      <point x="1426" y="1151"/>
      <point x="1628" y="1151" type="curve" smooth="yes"/>
      <point x="1952" y="1151"/>
      <point x="2085" y="977"/>
      <point x="2094" y="733" type="curve" smooth="yes"/>
      <point x="2097" y="650"/>
      <point x="2088" y="586"/>
      <point x="2080" y="530" type="curve"/>
      <point x="1383" y="530" type="line"/>
      <point x="1401" y="295"/>
      <point x="1504" y="173"/>
      <point x="1700" y="173" type="curve" smooth="yes"/>
      <point x="1797" y="173"/>
      <point x="1911" y="192"/>
      <point x="2019" y="240" type="curve"/>
      <point x="2072" y="115" type="line"/>
      <point x="1970" y="30"/>
      <point x="1775" y="-32"/>
      <point x="1581" y="-28" type="curve" smooth="yes"/>
      <point x="1372" y="-24"/>
      <point x="1215" y="44"/>
      <point x="1120" y="168" type="curve"/>
      <point x="1007" y="38"/>
      <point x="837" y="-23"/>
      <point x="658" y="-24" type="curve" smooth="yes"/>
      <point x="232" y="-25"/>
      <point x="70" y="240"/>
    </contour>
    <contour>
      <point x="1384" y="691" type="curve"/>
      <point x="1750" y="691" type="line"/>
      <point x="1758" y="789"/>
      <point x="1775" y="928"/>
      <point x="1694" y="985" type="curve" smooth="yes"/>
      <point x="1670" y="1002"/>
      <point x="1639" y="1011"/>
      <point x="1596" y="1011" type="curve" smooth="yes"/>
      <point x="1441" y="1011"/>
      <point x="1394" y="845"/>
    </contour>
    <contour>
      <point x="669" y="122" type="curve" smooth="yes"/>
      <point x="855" y="122"/>
      <point x="886" y="363"/>
      <point x="886" y="574" type="curve" smooth="yes"/>
      <point x="886" y="764"/>
      <point x="856" y="1006"/>
      <point x="677" y="1006" type="curve" smooth="yes"/>
      <point x="491" y="1006"/>
      <point x="450" y="785"/>
      <point x="450" y="589" type="curve" smooth="yes"/>
      <point x="450" y="418"/>
      <point x="490" y="122"/>
    </contour>
  </outline>
</glyph>
<glyph name="Rcommaaccent" format="1">
  <advance width="1525"/>
  <unicode hex="0156"/>
  <outline>
    <contour>
      <point x="61" y="0" type="line"/>
      <point x="61" y="140" type="line"/>
      <point x="235" y="183" type="line"/>
      <point x="235" y="1356" type="line"/>
      <point x="80" y="1380" type="line"/>
      <point x="80" y="1553" type="line"/>
      <point x="305" y="1553" type="line" smooth="yes"/>
      <point x="494" y="1553"/>
      <point x="658" y="1567"/>
      <point x="760" y="1567" type="curve" smooth="yes"/>
      <point x="1102" y="1567"/>
      <point x="1364" y="1454"/>
      <point x="1364" y="1161" type="curve" smooth="yes"/>
      <point x="1364" y="925"/>
      <point x="1257" y="769"/>
      <point x="1026" y="691" type="curve"/>
      <point x="1192" y="601"/>
      <point x="1292" y="243"/>
      <point x="1415" y="177" type="curve"/>
      <point x="1545" y="140" type="line"/>
      <point x="1545" y="0" type="line"/>
      <point x="1122" y="0" type="line" smooth="yes"/>
      <point x="990" y="0"/>
      <point x="882" y="644"/>
      <point x="710" y="645" type="curve"/>
      <point x="667" y="644"/>
      <point x="626" y="645"/>
      <point x="589" y="644" type="curve"/>
      <point x="589" y="178" type="line"/>
      <point x="780" y="140" type="line"/>
      <point x="780" y="0" type="line"/>
    </contour>
    <contour>
      <point x="589" y="809" type="line"/>
      <point x="650" y="799"/>
      <point x="734" y="797"/>
      <point x="798" y="806" type="curve" smooth="yes"/>
      <point x="890" y="819"/>
      <point x="1021" y="875"/>
      <point x="1021" y="1124" type="curve" smooth="yes"/>
      <point x="1021" y="1255"/>
      <point x="945" y="1403"/>
      <point x="710" y="1403" type="curve" smooth="yes"/>
      <point x="672" y="1403"/>
      <point x="613" y="1403"/>
      <point x="589" y="1391" type="curve"/>
    </contour>
    <contour>
      <point x="686" y="-203" type="line"/>
      <point x="834" y="-40" type="line"/>
      <point x="974" y="-40"/>
      <point x="1097" y="-145"/>
      <point x="1097" y="-321" type="curve" smooth="yes"/>
      <point x="1097" y="-493"/>
      <point x="924" y="-616"/>
      <point x="843" y="-640" type="curve"/>
      <point x="715" y="-589" type="line"/>
      <point x="715" y="-568" type="line"/>
      <point x="746" y="-534"/>
      <point x="811" y="-497"/>
      <point x="811" y="-414" type="curve" smooth="yes"/>
      <point x="811" y="-343"/>
      <point x="754" y="-280"/>
      <point x="686" y="-280" type="curve"/>
    </contour>
  </outline>
</glyph>
<glyph name="Scaron" format="1">
  <advance width="1306"/>
  <unicode hex="0160"/>
  <outline>
    <contour>
      <point x="530" y="1597" type="line"/>
      <point x="250" y="1847" type="line"/>
      <point x="362" y="1920" type="line"/>
      <point x="644" y="1792" type="line"/>
      <point x="936" y="1920" type="line"/>
      <point x="1047" y="1847" type="line"/>
      <point x="762" y="1597" type="line"/>
    </contour>
    <contour>
      <point x="132" y="64" type="curve"/>
      <point x="132" y="469" type="line"/>
      <point x="282" y="469" type="line"/>
      <point x="375" y="228" type="line"/>
      <point x="446" y="134"/>
      <point x="553" y="126"/>
      <point x="657" y="126" type="curve" smooth="yes"/>
      <point x="761" y="126"/>
      <point x="894" y="175"/>
      <point x="894" y="348" type="curve" smooth="yes"/>
      <point x="894" y="484"/>
      <point x="715" y="567"/>
      <point x="530" y="667" type="curve" smooth="yes"/>
      <point x="331" y="775"/>
      <point x="125" y="903"/>
      <point x="126" y="1141" type="curve" smooth="yes"/>
      <point x="127" y="1416"/>
      <point x="391" y="1567"/>
      <point x="663" y="1567" type="curve" smooth="yes"/>
      <point x="882" y="1567"/>
      <point x="1105" y="1521"/>
      <point x="1147" y="1495" type="curve"/>
      <point x="1147" y="1164" type="line"/>
      <point x="983" y="1164" type="line"/>
      <point x="889" y="1374" type="line"/>
      <point x="877" y="1389"/>
      <point x="781" y="1421"/>
      <point x="698" y="1421" type="curve" smooth="yes"/>
      <point x="591" y="1421"/>
      <point x="466" y="1384"/>
      <point x="464" y="1257" type="curve"/>
      <point x="464" y="1108"/>
      <point x="598" y="1017"/>
      <point x="756" y="930" type="curve" smooth="yes"/>
      <point x="980" y="806"/>
      <point x="1251" y="689"/>
      <point x="1250" y="421" type="curve" smooth="yes"/>
      <point x="1249" y="166"/>
      <point x="1027" y="-28"/>
      <point x="655" y="-28" type="curve" smooth="yes"/>
      <point x="469" y="-28"/>
      <point x="234" y="10"/>
    </contour>
  </outline>
</glyph>
<glyph name="scaron" format="1">
  <advance width="1095"/>
  <unicode hex="0161"/>
  <outline>
    <contour>
      <point x="439" y="1335" type="line"/>
      <point x="168" y="1701" type="line"/>
      <point x="299" y="1775" type="line"/>
      <point x="565" y="1568" type="line"/>
      <point x="824" y="1774" type="line"/>
      <point x="969" y="1700" type="line"/>
      <point x="692" y="1335" type="line"/>
    </contour>
    <contour>
      <point x="99" y="66" type="curve"/>
      <point x="99" y="329" type="line"/>
      <point x="264" y="329" type="line"/>
      <point x="327" y="220" type="line"/>
      <point x="360" y="186"/>
      <point x="416" y="116"/>
      <point x="515" y="111" type="curve" smooth="yes"/>
      <point x="634" y="105"/>
      <point x="698" y="156"/>
      <point x="697" y="236" type="curve"/>
      <point x="695" y="309"/>
      <point x="573" y="365"/>
      <point x="437" y="427" type="curve" smooth="yes"/>
      <point x="248" y="514"/>
      <point x="78" y="621"/>
      <point x="81" y="830" type="curve" smooth="yes"/>
      <point x="84" y="1068"/>
      <point x="370" y="1146"/>
      <point x="560" y="1151" type="curve" smooth="yes"/>
      <point x="712" y="1154"/>
      <point x="876" y="1124"/>
      <point x="958" y="1093" type="curve"/>
      <point x="958" y="820" type="line"/>
      <point x="782" y="820" type="line"/>
      <point x="726" y="944" type="line"/>
      <point x="691" y="985"/>
      <point x="637" y="1023"/>
      <point x="578" y="1023" type="curve" smooth="yes"/>
      <point x="504" y="1023"/>
      <point x="431" y="996"/>
      <point x="431" y="931" type="curve" smooth="yes"/>
      <point x="431" y="844"/>
      <point x="507" y="782"/>
      <point x="613" y="733" type="curve" smooth="yes"/>
      <point x="804" y="645"/>
      <point x="1035" y="567"/>
      <point x="1035" y="336" type="curve" smooth="yes"/>
      <point x="1035" y="72"/>
      <point x="790" y="-24"/>
      <point x="501" y="-24" type="curve" smooth="yes"/>
      <point x="373" y="-24"/>
      <point x="207" y="3"/>
    </contour>
  </outline>
</glyph>
<glyph name="Ydieresis" format="1">
  <advance width="1470"/>
  <unicode hex="0178"/>
  <outline>
    <contour>
      <point x="1024" y="1619" type="curve" smooth="yes"/>
      <point x="931" y="1619"/>
      <point x="843" y="1669"/>
      <point x="843" y="1759" type="curve" smooth="yes"/>
      <point x="843" y="1852"/>
      <point x="949" y="1920"/>
      <point x="1050" y="1920" type="curve" smooth="yes"/>
      <point x="1180" y="1920"/>
      <point x="1228" y="1860"/>
      <point x="1228" y="1782" type="curve" smooth="yes"/>
      <point x="1228" y="1682"/>
      <point x="1131" y="1619"/>
    </contour>
    <contour>
      <point x="476" y="1618" type="curve" smooth="yes"/>
      <point x="380" y="1618"/>
      <point x="299" y="1667"/>
      <point x="299" y="1756" type="curve" smooth="yes"/>
      <point x="299" y="1852"/>
      <point x="401" y="1920"/>
      <point x="504" y="1920" type="curve" smooth="yes"/>
      <point x="634" y="1920"/>
      <point x="688" y="1859"/>
      <point x="688" y="1780" type="curve" smooth="yes"/>
      <point x="688" y="1681"/>
      <point x="586" y="1618"/>
    </contour>
    <contour>
      <point x="344" y="0" type="line"/>
      <point x="344" y="140" type="line"/>
      <point x="584" y="185" type="line"/>
      <point x="584" y="511" type="line"/>
      <point x="118" y="1370" type="line"/>
      <point x="8" y="1389" type="line"/>
      <point x="8" y="1553" type="line"/>
      <point x="638" y="1553" type="line"/>
      <point x="638" y="1392" type="line"/>
      <point x="532" y="1372" type="line"/>
      <point x="784" y="841" type="line"/>
      <point x="813" y="747" type="line"/>
      <point x="846" y="850" type="line"/>
      <point x="1059" y="1364" type="line"/>
      <point x="900" y="1389" type="line"/>
      <point x="900" y="1444"/>
      <point x="899" y="1498"/>
      <point x="899" y="1553" type="curve"/>
      <point x="1462" y="1553" type="line"/>
      <point x="1462" y="1389" type="line"/>
      <point x="1330" y="1352" type="line"/>
      <point x="940" y="543" type="line"/>
      <point x="940" y="188" type="line"/>
      <point x="1209" y="140" type="line"/>
      <point x="1209" y="0" type="line"/>
    </contour>
  </outline>
</glyph>
<glyph name="Zdotaccent" format="1">
  <advance width="1378"/>
  <unicode hex="017B"/>
  <outline>
    <contour>
      <point x="682" y="1619" type="curve" smooth="yes"/>
      <point x="589" y="1619"/>
      <point x="501" y="1669"/>
      <point x="501" y="1759" type="curve" smooth="yes"/>
      <point x="501" y="1852"/>
      <point x="607" y="1920"/>
      <point x="708" y="1920" type="curve" smooth="yes"/>
      <point x="838" y="1920"/>
      <point x="886" y="1860"/>
      <point x="886" y="1782" type="curve" smooth="yes"/>
      <point x="886" y="1682"/>
      <point x="789" y="1619"/>
    </contour>
    <contour>
      <point x="88" y="0" type="line"/>
      <point x="47" y="139" type="line"/>
      <point x="786" y="1211" type="line"/>
      <point x="952" y="1393" type="line"/>
      <point x="378" y="1346" type="line"/>
      <point x="250" y="1101" type="line"/>
      <point x="97" y="1131" type="line"/>
      <point x="140" y="1553" type="line"/>
      <point x="1290" y="1553" type="line"/>
      <point x="1336" y="1400" type="line"/>
      <point x="609" y="330" type="line"/>
      <point x="464" y="164" type="line"/>
      <point x="1021" y="210" type="line"/>
      <point x="1220" y="477" type="line"/>
      <point x="1369" y="436" type="line"/>
      <point x="1259" y="0" type="line"/>
    </contour>
  </outline>
</glyph>
<glyph name="Zcaron" format="1">
  <advance width="1378"/>
  <unicode hex="017D"/>
  <outline>
    <contour>
      <point x="583" y="1597" type="line"/>
      <point x="303" y="1847" type="line"/>
      <point x="415" y="1920" type="line"/>
      <point x="697" y="1792" type="line"/>
      <point x="989" y="1920" type="line"/>
      <point x="1100" y="1847" type="line"/>
      <point x="815" y="1597" type="line"/>
    </contour>
    <contour>
      <point x="88" y="0" type="line"/>
      <point x="47" y="139" type="line"/>
      <point x="786" y="1211" type="line"/>
      <point x="952" y="1393" type="line"/>
      <point x="378" y="1346" type="line"/>
      <point x="250" y="1101" type="line"/>
      <point x="97" y="1131" type="line"/>
      <point x="140" y="1553" type="line"/>
      <point x="1290" y="1553" type="line"/>
      <point x="1336" y="1400" type="line"/>
      <point x="609" y="330" type="line"/>
      <point x="464" y="164" type="line"/>
      <point x="1021" y="210" type="line"/>
      <point x="1220" y="477" type="line"/>
      <point x="1369" y="436" type="line"/>
      <point x="1259" y="0" type="line"/>
    </contour>
  </outline>
</glyph>
<glyph name="circumflex" format="1">
  <advance width="1063"/>
  <unicode hex="02C6"/>
  <outline>
    <contour>
      <point x="262" y="1335" type="line"/>
      <point x="131" y="1409" type="line"/>
      <point x="402" y="1775" type="line"/>
      <point x="655" y="1775" type="line"/>
      <point x="932" y="1410" type="line"/>
      <point x="787" y="1336" type="line"/>
      <point x="528" y="1542" type="line"/>
    </contour>
  </outline>
</glyph>
<glyph name="caron" format="1">
  <advance width="1061"/>
  <unicode hex="02C7"/>
  <outline>
    <contour>
      <point x="406" y="1335" type="line"/>
      <point x="135" y="1701" type="line"/>
      <point x="266" y="1775" type="line"/>
      <point x="532" y="1568" type="line"/>
      <point x="791" y="1774" type="line"/>
      <point x="936" y="1700" type="line"/>
      <point x="659" y="1335" type="line"/>
    </contour>
  </outline>
</glyph>
<glyph name="ring" format="1">
  <advance width="635"/>
  <unicode hex="02DA"/>
  <outline>
    <contour>
      <point x="318" y="1285" type="curve" smooth="yes"/>
      <point x="157" y="1285"/>
      <point x="25" y="1408"/>
      <point x="25" y="1560" type="curve" smooth="yes"/>
      <point x="25" y="1711"/>
      <point x="157" y="1835"/>
      <point x="318" y="1835" type="curve" smooth="yes"/>
      <point x="481" y="1835"/>
      <point x="613" y="1706"/>
      <point x="613" y="1560" type="curve" smooth="yes"/>
      <point x="613" y="1408"/>
      <point x="481" y="1285"/>
    </contour>
    <contour>
      <point x="318" y="1427" type="curve" smooth="yes"/>
      <point x="393" y="1427"/>
      <point x="450" y="1483"/>
      <point x="450" y="1560" type="curve" smooth="yes"/>
      <point x="450" y="1633"/>
      <point x="393" y="1694"/>
      <point x="318" y="1694" type="curve" smooth="yes"/>
      <point x="239" y="1694"/>
      <point x="185" y="1637"/>
      <point x="185" y="1560" type="curve" smooth="yes"/>
      <point x="185" y="1483"/>
      <point x="239" y="1427"/>
    </contour>
  </outline>
</glyph>
<glyph name="tilde" format="1">
  <advance width="1081"/>
  <unicode hex="02DC"/>
  <outline>
    <contour>
      <point x="199" y="1369" type="curve"/>
      <point x="112" y="1467" type="line"/>
      <point x="156" y="1585"/>
      <point x="328" y="1675"/>
      <point x="420" y="1675" type="curve" smooth="yes"/>
      <point x="566" y="1675"/>
      <point x="628" y="1575"/>
      <point x="713" y="1575" type="curve" smooth="yes"/>
      <point x="784" y="1575"/>
      <point x="835" y="1612"/>
      <point x="879" y="1646" type="curve"/>
      <point x="968" y="1549" type="line"/>
      <point x="923" y="1431"/>
      <point x="760" y="1338"/>
      <point x="667" y="1338" type="curve" smooth="yes"/>
      <point x="522" y="1338"/>
      <point x="453" y="1441"/>
      <point x="367" y="1441" type="curve" smooth="yes"/>
      <point x="308" y="1441"/>
      <point x="246" y="1403"/>
    </contour>
  </outline>
</glyph>
<glyph name="pi" format="1">
  <advance width="1637"/>
  <unicode hex="03C0"/>
  <outline>
    <contour>
      <point x="129" y="114" type="line"/>
      <point x="146" y="118"/>
      <point x="222" y="143"/>
      <point x="279" y="182" type="curve" smooth="yes"/>
      <point x="396" y="262"/>
      <point x="417" y="350"/>
      <point x="425" y="486" type="curve"/>
      <point x="453" y="828" type="line"/>
      <point x="356" y="828" type="line"/>
      <point x="279" y="829"/>
      <point x="227" y="789"/>
      <point x="204" y="727" type="curve"/>
      <point x="60" y="757" type="line"/>
      <point x="56" y="777"/>
      <point x="64" y="817"/>
      <point x="74" y="854" type="curve" smooth="yes"/>
      <point x="117" y="1015"/>
      <point x="254" y="1118"/>
      <point x="391" y="1118" type="curve" smooth="yes"/>
      <point x="1174" y="1118" type="line" smooth="yes"/>
      <point x="1263" y="1118"/>
      <point x="1332" y="1144"/>
      <point x="1373" y="1225" type="curve"/>
      <point x="1517" y="1225" type="line"/>
      <point x="1505" y="1044"/>
      <point x="1422" y="841"/>
      <point x="1208" y="828" type="curve"/>
      <point x="1187" y="366" type="line"/>
      <point x="1180" y="241"/>
      <point x="1209" y="194"/>
      <point x="1242" y="194" type="curve" smooth="yes"/>
      <point x="1302" y="194"/>
      <point x="1358" y="233"/>
      <point x="1381" y="300" type="curve"/>
      <point x="1560" y="300" type="line"/>
      <point x="1524" y="158"/>
      <point x="1387" y="-14"/>
      <point x="1207" y="-14" type="curve" smooth="yes"/>
      <point x="988" y="-14"/>
      <point x="904" y="79"/>
      <point x="917" y="250" type="curve"/>
      <point x="985" y="827" type="line"/>
      <point x="677" y="827" type="line"/>
      <point x="674" y="430" type="line"/>
      <point x="664" y="201"/>
      <point x="625" y="136"/>
      <point x="533" y="52" type="curve" smooth="yes"/>
      <point x="494" y="16"/>
      <point x="426" y="-8"/>
      <point x="373" y="-24" type="curve"/>
    </contour>
  </outline>
</glyph>
<glyph name="emdash" format="1">
  <advance width="2415"/>
  <unicode hex="2014"/>
  <outline>
    <contour>
      <point x="183" y="724" type="line"/>
      <point x="183" y="958" type="line"/>
      <point x="2232" y="958" type="line"/>
      <point x="2232" y="724" type="line"/>
    </contour>
  </outline>
</glyph>
<glyph name="quotesinglbase" format="1">
  <advance width="922"/>
  <unicode hex="201A"/>
  <outline>
    <contour>
      <point x="229" y="75" type="curve"/>
      <point x="229" y="152" type="line"/>
      <point x="461" y="440" type="line"/>
      <point x="666" y="369"/>
      <point x="731" y="143"/>
      <point x="728" y="9" type="curve" smooth="yes"/>
      <point x="721" y="-300"/>
      <point x="479" y="-473"/>
      <point x="297" y="-540" type="curve"/>
      <point x="193" y="-447" type="line"/>
      <point x="193" y="-404" type="line"/>
      <point x="275" y="-373"/>
      <point x="388" y="-251"/>
      <point x="388" y="-123" type="curve" smooth="yes"/>
      <point x="388" y="-31"/>
      <point x="311" y="67"/>
    </contour>
  </outline>
</glyph>
<glyph name="quotedblleft" format="1">
  <advance width="1537"/>
  <unicode hex="201C"/>
  <outline>
    <contour>
      <point x="1074" y="759" type="line"/>
      <point x="870" y="831"/>
      <point x="802" y="1058"/>
      <point x="808" y="1190" type="curve"/>
      <point x="815" y="1500"/>
      <point x="1058" y="1702"/>
      <point x="1238" y="1770" type="curve"/>
      <point x="1344" y="1676" type="line"/>
      <point x="1344" y="1634" type="line"/>
      <point x="1261" y="1603"/>
      <point x="1147" y="1451"/>
      <point x="1147" y="1323" type="curve" smooth="yes"/>
      <point x="1147" y="1231"/>
      <point x="1225" y="1133"/>
      <point x="1307" y="1125" type="curve"/>
      <point x="1307" y="1048" type="line"/>
    </contour>
    <contour>
      <point x="460" y="759" type="line"/>
      <point x="254" y="831"/>
      <point x="189" y="1058"/>
      <point x="194" y="1190" type="curve"/>
      <point x="200" y="1500"/>
      <point x="444" y="1702"/>
      <point x="625" y="1770" type="curve"/>
      <point x="730" y="1676" type="line"/>
      <point x="730" y="1634" type="line"/>
      <point x="646" y="1603"/>
      <point x="534" y="1451"/>
      <point x="534" y="1323" type="curve" smooth="yes"/>
      <point x="534" y="1231"/>
      <point x="610" y="1133"/>
      <point x="692" y="1125" type="curve"/>
      <point x="692" y="1048" type="line"/>
    </contour>
  </outline>
</glyph>
<glyph name="dagger" format="1">
  <advance width="1121"/>
  <unicode hex="2020"/>
  <outline>
    <contour>
      <point x="462" y="263" type="line"/>
      <point x="403" y="855" type="line"/>
      <point x="436" y="1095" type="line"/>
      <point x="128" y="1056" type="line"/>
      <point x="129" y="1326" type="line"/>
      <point x="438" y="1277" type="line"/>
      <point x="398" y="1557" type="line"/>
      <point x="398" y="1648" type="line"/>
      <point x="723" y="1648" type="line"/>
      <point x="723" y="1557" type="line"/>
      <point x="683" y="1277" type="line"/>
      <point x="992" y="1326" type="line"/>
      <point x="993" y="1056" type="line"/>
      <point x="685" y="1095" type="line"/>
      <point x="718" y="855" type="line"/>
      <point x="639" y="263" type="line"/>
    </contour>
  </outline>
</glyph>
<glyph name="daggerdbl" format="1">
  <advance width="1121"/>
  <unicode hex="2021"/>
  <outline>
    <contour>
      <point x="128" y="425" type="line"/>
      <point x="129" y="695" type="line"/>
      <point x="438" y="646" type="line"/>
      <point x="403" y="855" type="line"/>
      <point x="436" y="1095" type="line"/>
      <point x="128" y="1056" type="line"/>
      <point x="129" y="1326" type="line"/>
      <point x="438" y="1277" type="line"/>
      <point x="398" y="1557" type="line"/>
      <point x="398" y="1648" type="line"/>
      <point x="723" y="1648" type="line"/>
      <point x="723" y="1557" type="line"/>
      <point x="683" y="1277" type="line"/>
      <point x="992" y="1326" type="line"/>
      <point x="993" y="1056" type="line"/>
      <point x="685" y="1095" type="line"/>
      <point x="718" y="855" type="line"/>
      <point x="683" y="646" type="line"/>
      <point x="992" y="695" type="line"/>
      <point x="993" y="425" type="line"/>
      <point x="685" y="464" type="line"/>
      <point x="718" y="224" type="line"/>
      <point x="640" y="-368" type="line"/>
      <point x="463" y="-368" type="line"/>
      <point x="403" y="224" type="line"/>
      <point x="436" y="464" type="line"/>
    </contour>
  </outline>
</glyph>
<glyph name="ellipsis" format="1">
  <advance width="2397"/>
  <unicode hex="2026"/>
  <outline>
    <contour>
      <point x="1773" y="157" type="curve" smooth="yes"/>
      <point x="1773" y="286"/>
      <point x="1902" y="384"/>
      <point x="2011" y="384" type="curve" smooth="yes"/>
      <point x="2152" y="384"/>
      <point x="2218" y="297"/>
      <point x="2218" y="190" type="curve" smooth="yes"/>
      <point x="2218" y="54"/>
      <point x="2094" y="-29"/>
      <point x="1976" y="-29" type="curve" smooth="yes"/>
      <point x="1875" y="-29"/>
      <point x="1773" y="38"/>
    </contour>
    <contour>
      <point x="976" y="157" type="curve" smooth="yes"/>
      <point x="976" y="286"/>
      <point x="1105" y="384"/>
      <point x="1214" y="384" type="curve" smooth="yes"/>
      <point x="1355" y="384"/>
      <point x="1421" y="297"/>
      <point x="1421" y="190" type="curve" smooth="yes"/>
      <point x="1421" y="54"/>
      <point x="1297" y="-29"/>
      <point x="1179" y="-29" type="curve" smooth="yes"/>
      <point x="1078" y="-29"/>
      <point x="976" y="38"/>
    </contour>
    <contour>
      <point x="179" y="157" type="curve" smooth="yes"/>
      <point x="179" y="286"/>
      <point x="308" y="384"/>
      <point x="417" y="384" type="curve" smooth="yes"/>
      <point x="558" y="384"/>
      <point x="624" y="297"/>
      <point x="624" y="190" type="curve" smooth="yes"/>
      <point x="624" y="54"/>
      <point x="500" y="-29"/>
      <point x="382" y="-29" type="curve" smooth="yes"/>
      <point x="281" y="-29"/>
      <point x="179" y="38"/>
    </contour>
  </outline>
</glyph>
<glyph name="perthousand" format="1">
  <advance width="3016"/>
  <unicode hex="2030"/>
  <outline>
    <contour>
      <point x="562" y="-177" type="line"/>
      <point x="1284" y="1770" type="line"/>
      <point x="1524" y="1770" type="line"/>
      <point x="800" y="-177" type="line"/>
    </contour>
    <contour>
      <point x="483" y="692" type="curve" smooth="yes"/>
      <point x="252" y="691"/>
      <point x="109" y="858"/>
      <point x="109" y="1053" type="curve" smooth="yes"/>
      <point x="109" y="1292"/>
      <point x="303" y="1426"/>
      <point x="517" y="1427" type="curve" smooth="yes"/>
      <point x="779" y="1428"/>
      <point x="891" y="1265"/>
      <point x="891" y="1062" type="curve" smooth="yes"/>
      <point x="891" y="824"/>
      <point x="697" y="693"/>
    </contour>
    <contour>
      <point x="511" y="835" type="curve" smooth="yes"/>
      <point x="589" y="835"/>
      <point x="638" y="921"/>
      <point x="638" y="1055" type="curve" smooth="yes"/>
      <point x="638" y="1192"/>
      <point x="568" y="1284"/>
      <point x="501" y="1284" type="curve" smooth="yes"/>
      <point x="421" y="1284"/>
      <point x="361" y="1198"/>
      <point x="361" y="1061" type="curve" smooth="yes"/>
      <point x="361" y="938"/>
      <point x="443" y="835"/>
    </contour>
    <contour>
      <point x="2098" y="525" type="curve" smooth="yes"/>
      <point x="2098" y="764"/>
      <point x="2292" y="898"/>
      <point x="2506" y="899" type="curve" smooth="yes"/>
      <point x="2768" y="900"/>
      <point x="2880" y="737"/>
      <point x="2880" y="534" type="curve" smooth="yes"/>
      <point x="2880" y="296"/>
      <point x="2686" y="164"/>
      <point x="2472" y="164" type="curve" smooth="yes"/>
      <point x="2241" y="164"/>
      <point x="2098" y="330"/>
    </contour>
    <contour>
      <point x="1223" y="525" type="curve" smooth="yes"/>
      <point x="1223" y="764"/>
      <point x="1417" y="898"/>
      <point x="1631" y="899" type="curve" smooth="yes"/>
      <point x="1893" y="900"/>
      <point x="2005" y="737"/>
      <point x="2005" y="534" type="curve" smooth="yes"/>
      <point x="2005" y="296"/>
      <point x="1811" y="164"/>
      <point x="1597" y="164" type="curve" smooth="yes"/>
      <point x="1366" y="164"/>
      <point x="1223" y="330"/>
    </contour>
    <contour>
      <point x="2356" y="533" type="curve" smooth="yes"/>
      <point x="2356" y="410"/>
      <point x="2438" y="307"/>
      <point x="2506" y="307" type="curve" smooth="yes"/>
      <point x="2584" y="307"/>
      <point x="2633" y="393"/>
      <point x="2633" y="527" type="curve" smooth="yes"/>
      <point x="2633" y="664"/>
      <point x="2563" y="756"/>
      <point x="2496" y="756" type="curve" smooth="yes"/>
      <point x="2416" y="756"/>
      <point x="2356" y="670"/>
    </contour>
    <contour>
      <point x="1481" y="533" type="curve" smooth="yes"/>
      <point x="1481" y="410"/>
      <point x="1563" y="307"/>
      <point x="1631" y="307" type="curve" smooth="yes"/>
      <point x="1709" y="307"/>
      <point x="1758" y="393"/>
      <point x="1758" y="527" type="curve" smooth="yes"/>
      <point x="1758" y="664"/>
      <point x="1688" y="756"/>
      <point x="1621" y="756" type="curve" smooth="yes"/>
      <point x="1541" y="756"/>
      <point x="1481" y="670"/>
    </contour>
  </outline>
</glyph>
<glyph name="guilsinglright" format="1">
  <advance width="1283"/>
  <unicode hex="203A"/>
  <outline>
    <contour>
      <point x="223" y="226" type="line"/>
      <point x="678" y="619" type="line"/>
      <point x="223" y="996" type="line"/>
      <point x="309" y="1144" type="line"/>
      <point x="1048" y="782" type="line"/>
      <point x="1048" y="477" type="line"/>
      <point x="309" y="90" type="line"/>
    </contour>
  </outline>
</glyph>
<glyph name="partialdiff" format="1">
  <advance width="1481"/>
  <unicode hex="2202"/>
  <outline>
    <contour>
      <point x="107" y="390" type="curve" smooth="yes"/>
      <point x="107" y="780"/>
      <point x="502" y="1071"/>
      <point x="884" y="1071" type="curve" smooth="yes"/>
      <point x="934" y="1071"/>
      <point x="984" y="1067"/>
      <point x="1032" y="1059" type="curve"/>
      <point x="1002" y="1319"/>
      <point x="897" y="1547"/>
      <point x="586" y="1547" type="curve" smooth="yes"/>
      <point x="489" y="1547"/>
      <point x="401" y="1524"/>
      <point x="317" y="1475" type="curve"/>
      <point x="220" y="1606" type="line"/>
      <point x="364" y="1701"/>
      <point x="539" y="1755"/>
      <point x="712" y="1755" type="curve" smooth="yes"/>
      <point x="1180" y="1755"/>
      <point x="1342" y="1421"/>
      <point x="1342" y="1014" type="curve" smooth="yes"/>
      <point x="1342" y="542"/>
      <point x="1157" y="-67"/>
      <point x="566" y="-67" type="curve" smooth="yes"/>
      <point x="266" y="-67"/>
      <point x="107" y="155"/>
    </contour>
    <contour>
      <point x="408" y="499" type="curve" smooth="yes"/>
      <point x="408" y="317"/>
      <point x="542" y="140"/>
      <point x="734" y="140" type="curve" smooth="yes"/>
      <point x="940" y="140"/>
      <point x="1009" y="408"/>
      <point x="1031" y="633" type="curve" smooth="yes"/>
      <point x="1035" y="680"/>
      <point x="1038" y="726"/>
      <point x="1040" y="767" type="curve"/>
      <point x="954" y="827"/>
      <point x="856" y="866"/>
      <point x="747" y="866" type="curve" smooth="yes"/>
      <point x="562" y="866"/>
      <point x="408" y="750"/>
    </contour>
  </outline>
</glyph>
<glyph name="product" format="1">
  <advance width="1964"/>
  <unicode hex="220F"/>
  <outline>
    <contour>
      <point x="171" y="-37" type="line"/>
      <point x="357" y="5" type="line"/>
      <point x="356" y="1365" type="line"/>
      <point x="161" y="1388" type="line"/>
      <point x="161" y="1552" type="line"/>
      <point x="1813" y="1552" type="line"/>
      <point x="1813" y="1388" type="line"/>
      <point x="1607" y="1366" type="line"/>
      <point x="1607" y="5" type="line"/>
      <point x="1803" y="-39" type="line"/>
      <point x="1803" y="-177" type="line"/>
      <point x="1057" y="-177" type="line"/>
      <point x="1057" y="-39" type="line"/>
      <point x="1250" y="3" type="line"/>
      <point x="1250" y="1388" type="line"/>
      <point x="715" y="1388" type="line"/>
      <point x="715" y="5" type="line"/>
      <point x="899" y="-37" type="line"/>
      <point x="899" y="-177" type="line"/>
      <point x="171" y="-177" type="line"/>
    </contour>
  </outline>
</glyph>
<glyph name="summation" format="1">
  <advance width="1516"/>
  <unicode hex="2211"/>
  <outline>
    <contour>
      <point x="205" y="-15" type="line"/>
      <point x="699" y="639" type="line"/>
      <point x="205" y="1356" type="line"/>
      <point x="213" y="1553" type="line"/>
      <point x="1263" y="1553" type="line"/>
      <point x="1294" y="1211" type="line"/>
      <point x="1119" y="1211" type="line"/>
      <point x="1035" y="1391" type="line"/>
      <point x="570" y="1406" type="line"/>
      <point x="1055" y="703" type="line"/>
      <point x="494" y="-16" type="line"/>
      <point x="1063" y="4" type="line"/>
      <point x="1180" y="209" type="line"/>
      <point x="1358" y="172" type="line"/>
      <point x="1304" y="-180" type="line"/>
      <point x="213" y="-179" type="line"/>
    </contour>
  </outline>
</glyph>
<glyph name="integral" format="1">
  <advance width="1247"/>
  <unicode hex="222B"/>
  <outline>
    <contour>
      <point x="207" y="-176" type="line"/>
      <point x="223" y="-231"/>
      <point x="288" y="-304"/>
      <point x="357" y="-304" type="curve" smooth="yes"/>
      <point x="447" y="-304"/>
      <point x="538" y="-261"/>
      <point x="538" y="1" type="curve" smooth="yes"/>
      <point x="538" y="400"/>
      <point x="383" y="749"/>
      <point x="383" y="1146" type="curve" smooth="yes"/>
      <point x="383" y="1474"/>
      <point x="601" y="1713"/>
      <point x="892" y="1713" type="curve" smooth="yes"/>
      <point x="980" y="1713"/>
      <point x="1133" y="1694"/>
      <point x="1203" y="1566" type="curve"/>
      <point x="1039" y="1427" type="line"/>
      <point x="1023" y="1482"/>
      <point x="958" y="1555"/>
      <point x="889" y="1555" type="curve" smooth="yes"/>
      <point x="799" y="1555"/>
      <point x="708" y="1512"/>
      <point x="708" y="1250" type="curve" smooth="yes"/>
      <point x="708" y="849"/>
      <point x="853" y="496"/>
      <point x="853" y="95" type="curve" smooth="yes"/>
      <point x="853" y="-233"/>
      <point x="645" y="-472"/>
      <point x="354" y="-472" type="curve" smooth="yes"/>
      <point x="266" y="-472"/>
      <point x="113" y="-453"/>
      <point x="43" y="-325" type="curve"/>
    </contour>
  </outline>
</glyph>
<glyph name="approxequal" format="1">
  <advance width="1391"/>
  <unicode hex="2248"/>
  <outline>
    <contour>
      <point x="281" y="925" type="curve"/>
      <point x="183" y="1051" type="line"/>
      <point x="197" y="1127"/>
      <point x="362" y="1296"/>
      <point x="528" y="1296" type="curve" smooth="yes"/>
      <point x="702" y="1296"/>
      <point x="748" y="1156"/>
      <point x="891" y="1156" type="curve" smooth="yes"/>
      <point x="985" y="1156"/>
      <point x="1070" y="1221"/>
      <point x="1109" y="1256" type="curve"/>
      <point x="1208" y="1130" type="line"/>
      <point x="1196" y="1045"/>
      <point x="1039" y="883"/>
      <point x="866" y="883" type="curve" smooth="yes"/>
      <point x="693" y="883"/>
      <point x="656" y="1025"/>
      <point x="497" y="1025" type="curve" smooth="yes"/>
      <point x="403" y="1025"/>
      <point x="322" y="961"/>
    </contour>
    <contour>
      <point x="281" y="338" type="curve"/>
      <point x="183" y="464" type="line"/>
      <point x="197" y="540"/>
      <point x="362" y="709"/>
      <point x="528" y="709" type="curve" smooth="yes"/>
      <point x="702" y="709"/>
      <point x="748" y="569"/>
      <point x="891" y="569" type="curve" smooth="yes"/>
      <point x="985" y="569"/>
      <point x="1070" y="634"/>
      <point x="1109" y="669" type="curve"/>
      <point x="1208" y="543" type="line"/>
      <point x="1196" y="458"/>
      <point x="1039" y="296"/>
      <point x="866" y="296" type="curve" smooth="yes"/>
      <point x="693" y="296"/>
      <point x="656" y="438"/>
      <point x="497" y="438" type="curve" smooth="yes"/>
      <point x="403" y="438"/>
      <point x="322" y="374"/>
    </contour>
  </outline>
</glyph>
<glyph name="greaterequal" format="1">
  <advance width="1340"/>
  <unicode hex="2265"/>
  <outline>
    <contour>
      <point x="189" y="508" type="line"/>
      <point x="189" y="793" type="line"/>
      <point x="732" y="973" type="line"/>
      <point x="189" y="1159" type="line"/>
      <point x="189" y="1443" type="line"/>
      <point x="1157" y="1041" type="line"/>
      <point x="1157" y="906" type="line"/>
    </contour>
    <contour>
      <point x="183" y="118" type="line"/>
      <point x="183" y="354" type="line"/>
      <point x="1137" y="354" type="line"/>
      <point x="1137" y="118" type="line"/>
    </contour>
  </outline>
</glyph>
<glyph name="ffl" format="1">
  <advance width="2627"/>
  <unicode hex="FB04"/>
  <outline>
    <contour>
      <point x="1018" y="0" type="line"/>
      <point x="1018" y="136" type="line"/>
      <point x="1180" y="166" type="line"/>
      <point x="1180" y="913" type="line"/>
      <point x="997" y="913" type="line"/>
      <point x="997" y="1018" type="line"/>
      <point x="1180" y="1097" type="line"/>
      <point x="1180" y="1202" type="line" smooth="yes"/>
      <point x="1180" y="1436"/>
      <point x="1379" y="1734"/>
      <point x="1676" y="1734" type="curve" smooth="yes"/>
      <point x="1745" y="1734"/>
      <point x="1842" y="1723"/>
      <point x="1891" y="1702" type="curve"/>
      <point x="1891" y="1442" type="line"/>
      <point x="1870" y="1450"/>
      <point x="1757" y="1497"/>
      <point x="1667" y="1497" type="curve" smooth="yes"/>
      <point x="1579" y="1497"/>
      <point x="1534" y="1484"/>
      <point x="1534" y="1308" type="curve" smooth="yes"/>
      <point x="1534" y="1119" type="line"/>
      <point x="1834" y="1119" type="line"/>
      <point x="1834" y="913" type="line"/>
      <point x="1534" y="913" type="line"/>
      <point x="1534" y="165" type="line"/>
      <point x="1774" y="136" type="line"/>
      <point x="1774" y="0" type="line"/>
    </contour>
    <contour>
      <point x="72" y="0" type="line"/>
      <point x="72" y="136" type="line"/>
      <point x="234" y="166" type="line"/>
      <point x="234" y="913" type="line"/>
      <point x="51" y="913" type="line"/>
      <point x="51" y="1018" type="line"/>
      <point x="234" y="1097" type="line"/>
      <point x="234" y="1202" type="line" smooth="yes"/>
      <point x="234" y="1436"/>
      <point x="433" y="1734"/>
      <point x="730" y="1734" type="curve" smooth="yes"/>
      <point x="799" y="1734"/>
      <point x="896" y="1723"/>
      <point x="945" y="1702" type="curve"/>
      <point x="945" y="1442" type="line"/>
      <point x="924" y="1450"/>
      <point x="811" y="1497"/>
      <point x="721" y="1497" type="curve" smooth="yes"/>
      <point x="633" y="1497"/>
      <point x="588" y="1484"/>
      <point x="588" y="1308" type="curve" smooth="yes"/>
      <point x="588" y="1119" type="line"/>
      <point x="888" y="1119" type="line"/>
      <point x="888" y="913" type="line"/>
      <point x="588" y="913" type="line"/>
      <point x="588" y="165" type="line"/>
      <point x="828" y="136" type="line"/>
      <point x="828" y="0" type="line"/>
    </contour>
    <contour>
      <point x="1962" y="0" type="line"/>
      <point x="1962" y="136" type="line"/>
      <point x="2080" y="161" type="line"/>
      <point x="2080" y="1384" type="line"/>
      <point x="1945" y="1441" type="line"/>
      <point x="1945" y="1581" type="line"/>
      <point x="2376" y="1630" type="line"/>
      <point x="2434" y="1612" type="line"/>
      <point x="2434" y="166" type="line"/>
      <point x="2609" y="136" type="line"/>
      <point x="2609" y="0" type="line"/>
    </contour>
  </outline>
</glyph>
<glyph name=".notdef" format="1">
  <advance width="1770"/>
  <outline>
    <contour>
      <point x="177" y="-2" type="line"/>
      <point x="177" y="1416" type="line"/>
      <point x="1593" y="1416" type="line"/>
      <point x="1593" y="-2" type="line"/>
    </contour>
    <contour>
      <point x="356" y="396" type="line"/>
      <point x="568" y="171" type="line"/>
      <point x="877" y="533" type="line"/>
      <point x="1227" y="174" type="line"/>
      <point x="1418" y="365" type="line"/>
      <point x="1053" y="711" type="line"/>
      <point x="1423" y="1064" type="line"/>
      <point x="1221" y="1264" type="line"/>
      <point x="884" y="889" type="line"/>
      <point x="536" y="1254" type="line"/>
      <point x="342" y="1055" type="line"/>
      <point x="704" y="708" type="line"/>
    </contour>
  </outline>
</glyph>
<glyph name="acute.cap" format="1">
  <advance width="905"/>
  <outline>
    <contour>
      <point x="312" y="1593" type="curve"/>
      <point x="211" y="1700" type="line"/>
      <point x="604" y="1920" type="line"/>
      <point x="797" y="1728" type="line"/>
      <point x="684" y="1643"/>
      <point x="357" y="1590"/>
    </contour>
  </outline>
</glyph>
<glyph name="breve.cap" format="1">
  <advance width="728"/>
  <outline>
    <contour>
      <point x="364" y="1580" type="curve" smooth="yes"/>
      <point x="114" y="1580"/>
      <point x="-10" y="1757"/>
      <point x="-10" y="1920" type="curve"/>
      <point x="201" y="1920" type="line"/>
      <point x="208" y="1888"/>
      <point x="236" y="1781"/>
      <point x="365" y="1781" type="curve" smooth="yes"/>
      <point x="489" y="1781"/>
      <point x="522" y="1887"/>
      <point x="531" y="1920" type="curve"/>
      <point x="738" y="1920" type="line"/>
      <point x="738" y="1757"/>
      <point x="603" y="1580"/>
    </contour>
  </outline>
</glyph>
<glyph name="caron.cap" format="1">
  <advance width="1064"/>
  <outline>
    <contour>
      <point x="411" y="1597" type="line"/>
      <point x="131" y="1847" type="line"/>
      <point x="243" y="1920" type="line"/>
      <point x="525" y="1792" type="line"/>
      <point x="817" y="1920" type="line"/>
      <point x="928" y="1847" type="line"/>
      <point x="643" y="1597" type="line"/>
    </contour>
  </outline>
</glyph>
<glyph name="commabelow" format="1">
  <advance width="767"/>
  <outline>
    <contour>
      <point x="153" y="-203" type="line"/>
      <point x="301" y="-40" type="line"/>
      <point x="441" y="-40"/>
      <point x="564" y="-145"/>
      <point x="564" y="-321" type="curve" smooth="yes"/>
      <point x="564" y="-493"/>
      <point x="391" y="-616"/>
      <point x="310" y="-640" type="curve"/>
      <point x="182" y="-589" type="line"/>
      <point x="182" y="-568" type="line"/>
      <point x="213" y="-534"/>
      <point x="278" y="-497"/>
      <point x="278" y="-414" type="curve" smooth="yes"/>
      <point x="278" y="-343"/>
      <point x="221" y="-280"/>
      <point x="153" y="-280" type="curve"/>
    </contour>
  </outline>
</glyph>
<glyph name="dieresis.cap" format="1">
  <advance width="1062"/>
  <outline>
    <contour>
      <point x="791" y="1619" type="curve" smooth="yes"/>
      <point x="698" y="1619"/>
      <point x="610" y="1669"/>
      <point x="610" y="1759" type="curve" smooth="yes"/>
      <point x="610" y="1852"/>
      <point x="716" y="1920"/>
      <point x="817" y="1920" type="curve" smooth="yes"/>
      <point x="947" y="1920"/>
      <point x="995" y="1860"/>
      <point x="995" y="1782" type="curve" smooth="yes"/>
      <point x="995" y="1682"/>
      <point x="898" y="1619"/>
    </contour>
    <contour>
      <point x="243" y="1618" type="curve" smooth="yes"/>
      <point x="147" y="1618"/>
      <point x="66" y="1667"/>
      <point x="66" y="1756" type="curve" smooth="yes"/>
      <point x="66" y="1852"/>
      <point x="168" y="1920"/>
      <point x="271" y="1920" type="curve" smooth="yes"/>
      <point x="401" y="1920"/>
      <point x="455" y="1859"/>
      <point x="455" y="1780" type="curve" smooth="yes"/>
      <point x="455" y="1681"/>
      <point x="353" y="1618"/>
    </contour>
  </outline>
</glyph>
<glyph name="dotaccent.cap" format="1">
  <advance width="709"/>
  <outline>
    <contour>
      <point x="333" y="1619" type="curve" smooth="yes"/>
      <point x="240" y="1619"/>
      <point x="152" y="1669"/>
      <point x="152" y="1759" type="curve" smooth="yes"/>
      <point x="152" y="1852"/>
      <point x="258" y="1920"/>
      <point x="359" y="1920" type="curve" smooth="yes"/>
      <point x="489" y="1920"/>
      <point x="537" y="1860"/>
      <point x="537" y="1782" type="curve" smooth="yes"/>
      <point x="537" y="1682"/>
      <point x="440" y="1619"/>
    </contour>
  </outline>
</glyph>
<glyph name="foundryicon" format="1">
  <advance width="1939"/>
  <outline>
    <contour>
      <point x="618" y="1701" type="curve" smooth="yes"/>
      <point x="580" y="1701"/>
      <point x="548" y="1727"/>
      <point x="548" y="1759" type="curve" smooth="yes"/>
      <point x="548" y="1793"/>
      <point x="589" y="1871"/>
      <point x="618" y="1920" type="curve"/>
      <point x="663" y="1855"/>
      <point x="690" y="1793"/>
      <point x="690" y="1759" type="curve" smooth="yes"/>
      <point x="690" y="1727"/>
      <point x="658" y="1701"/>
    </contour>
    <contour>
      <point x="605" y="128" type="curve" smooth="yes"/>
      <point x="605" y="174"/>
      <point x="637" y="188"/>
      <point x="658" y="188" type="curve" smooth="yes"/>
      <point x="680" y="188"/>
      <point x="708" y="172"/>
      <point x="708" y="128" type="curve" smooth="yes"/>
      <point x="708" y="20"/>
      <point x="731" y="-13"/>
      <point x="800" y="-13" type="curve" smooth="yes"/>
      <point x="853" y="-13"/>
      <point x="885" y="21"/>
      <point x="885" y="177" type="curve"/>
      <point x="907" y="177" type="line"/>
      <point x="907" y="669" type="line"/>
      <point x="872" y="669" type="line"/>
      <point x="872" y="692"/>
      <point x="887" y="710"/>
      <point x="907" y="717" type="curve"/>
      <point x="907" y="909" type="line"/>
      <point x="132" y="909" type="line"/>
      <point x="132" y="1183"/>
      <point x="480" y="1424"/>
      <point x="905" y="1416" type="curve"/>
      <point x="910" y="1576" type="line"/>
      <point x="950" y="1576" type="line"/>
      <point x="959" y="1416" type="line"/>
      <point x="1385" y="1424"/>
      <point x="1732" y="1183"/>
      <point x="1732" y="909" type="curve"/>
      <point x="964" y="909" type="line"/>
      <point x="964" y="177" type="line"/>
      <point x="985" y="178" type="line"/>
      <point x="985" y="-19"/>
      <point x="928" y="-108"/>
      <point x="800" y="-108" type="curve" smooth="yes"/>
      <point x="680" y="-108"/>
      <point x="605" y="-51"/>
    </contour>
  </outline>
</glyph>
<glyph name="grave.cap" format="1">
  <advance width="1062"/>
  <outline>
    <contour>
      <point x="573" y="1593" type="line"/>
      <point x="528" y="1590"/>
      <point x="221" y="1643"/>
      <point x="108" y="1728" type="curve"/>
      <point x="301" y="1920" type="line"/>
      <point x="674" y="1700" type="line"/>
    </contour>
  </outline>
</glyph>
<glyph name="ring.cap" format="1">
  <advance width="708"/>
  <outline>
    <contour>
      <point x="353" y="1428" type="curve" smooth="yes"/>
      <point x="201" y="1428"/>
      <point x="56" y="1514"/>
      <point x="56" y="1673" type="curve" smooth="yes"/>
      <point x="56" y="1831"/>
      <point x="183" y="1920"/>
      <point x="353" y="1920" type="curve" smooth="yes"/>
      <point x="525" y="1920"/>
      <point x="652" y="1826"/>
      <point x="652" y="1673" type="curve" smooth="yes"/>
      <point x="652" y="1514"/>
      <point x="507" y="1428"/>
    </contour>
    <contour>
      <point x="353" y="1555" type="curve" smooth="yes"/>
      <point x="424" y="1555"/>
      <point x="478" y="1605"/>
      <point x="478" y="1674" type="curve" smooth="yes"/>
      <point x="478" y="1739"/>
      <point x="424" y="1794"/>
      <point x="353" y="1794" type="curve" smooth="yes"/>
      <point x="278" y="1794"/>
      <point x="227" y="1743"/>
      <point x="227" y="1674" type="curve" smooth="yes"/>
      <point x="227" y="1605"/>
      <point x="278" y="1555"/>
    </contour>
  </outline>
</glyph>
<glyph name="tilde.cap" format="1">
  <advance width="1063"/>
  <outline>
    <contour>
      <point x="190" y="1634" type="curve"/>
      <point x="103" y="1712" type="line"/>
      <point x="147" y="1830"/>
      <point x="319" y="1920"/>
      <point x="411" y="1920" type="curve" smooth="yes"/>
      <point x="557" y="1920"/>
      <point x="619" y="1820"/>
      <point x="704" y="1820" type="curve" smooth="yes"/>
      <point x="775" y="1820"/>
      <point x="826" y="1853"/>
      <point x="870" y="1891" type="curve"/>
      <point x="959" y="1794" type="line"/>
      <point x="914" y="1676"/>
      <point x="751" y="1603"/>
      <point x="658" y="1603" type="curve" smooth="yes"/>
      <point x="513" y="1603"/>
      <point x="444" y="1706"/>
      <point x="358" y="1706" type="curve" smooth="yes"/>
      <point x="299" y="1706"/>
      <point x="237" y="1672"/>
    </contour>
  </outline>
</glyph>
